<?xml version="1.0" encoding="UTF-8"?>
<svg id="Layer_1" data-name="Layer 1" xmlns="http://www.w3.org/2000/svg" xmlns:xlink="http://www.w3.org/1999/xlink" viewBox="0 0 275 275">
  <defs>
    <style>
      .cls-1 {
        clip-path: url(#clippath);
      }

      .cls-2 {
        fill: none;
      }

      .cls-2, .cls-3, .cls-4, .cls-5, .cls-6, .cls-7, .cls-8, .cls-9, .cls-10 {
        stroke-width: 0px;
      }

      .cls-3 {
        fill: url(#linear-gradient);
      }

      .cls-4 {
        fill: #f27d04;
      }

      .cls-5 {
        fill: #757575;
      }

      .cls-6 {
        fill: #60605f;
      }

      .cls-7 {
        fill: #dfdfde;
        isolation: isolate;
        opacity: .5;
      }

      .cls-8 {
        fill: #919191;
      }

      .cls-9 {
        fill: #c6c6c6;
      }

      .cls-10 {
        fill: #fff;
      }
    </style>
    <linearGradient id="linear-gradient" x1="137.2" y1="212" x2="137.2" y2="260.27" gradientTransform="translate(0 276) scale(1 -1)" gradientUnits="userSpaceOnUse">
      <stop offset="0" stop-color="#60605f"/>
      <stop offset=".04" stop-color="#696968"/>
      <stop offset=".09" stop-color="#727272"/>
      <stop offset=".16" stop-color="#757575"/>
    </linearGradient>
    <clipPath id="clippath">
      <polygon class="cls-2" points="258.7 61.3 258.7 13 15.8 13 15.7 61.3 258.7 61.3"/>
    </clipPath>
  </defs>
  <g id="Gray_wall_window" data-name="Gray wall / window">
    <path class="cls-7" d="M276.7-10.5v-7L-2.3-11.3v303.5l.2-6.2v13h279V-10.5h-.2ZM251.4,173.4h-70.4v-74.3h70.4v74.3ZM175.4,173.4h-75.4v-74.3h75.4v74.3ZM94.4,173.4H23.4l.1-74.4h70.9v74.4ZM100,93.4V19.4h75.4v74.1h-75.4v-.1ZM94.4,93.4H23.5l.1-74.1h70.8v74.1ZM94.4,179.1v68.5H23.4l.1-68.5h70.9ZM100,179.1h75.4v68.5h-75.4v-68.5ZM181,179.1h70.4v68.5h-70.4v-68.5ZM251.4,19.5v74h-70.4V19.4h70.6l-.2.1Z"/>
  </g>
  <g id="CC_Loop_-_PID_808_Chain" data-name="CC Loop - PID 808 Chain">
    <g>
      <path class="cls-4" d="M18.78,229.38h-1.76c-1.75,0-3.19,1.44-3.19,3.19v9.9c0,1.75,1.44,3.19,3.19,3.19h1.76c1.75,0,3.19-1.44,3.19-3.19v-9.9c0-1.75-1.44-3.19-3.19-3.19ZM20.49,237.38c0,1.29-1.05,2.34-2.34,2.34s-2.34-1.05-2.34-2.34,1.05-2.34,2.34-2.34,2.34,1.04,2.34,2.34h0Z"/>
      <g>
        <path class="cls-10" d="M19.49,229.09c.83,0,1.5-.67,1.5-1.5v-.12c0-.83-.67-1.5-1.5-1.5s-1.5.67-1.5,1.5v.12c0,.83.67,1.5,1.5,1.5Z"/>
        <path class="cls-10" d="M15.53,236.13c-.02-.09-.03-.18-.05-.27-.01-.07-.01-.14-.02-.23,0-.73.55-1.37,1.27-1.48.83-.13,1.59.44,1.72,1.25v.09s.03.1.03.14c.07.4-.02.79-.25,1.12s-.58.54-.98.61c-.08,0-.17.02-.25.02-.73,0-1.35-.53-1.47-1.25ZM15.05,231.79c0-.06,0-.12-.02-.19v-.18c0-.78.61-1.43,1.39-1.49.84-.06,1.55.56,1.61,1.38,0,.08,0,.17.02.25.06.82-.56,1.54-1.38,1.61h-.12c-.78,0-1.43-.61-1.49-1.38h-.01ZM14.78,227.51v-.24s-.01-.05-.01-.08c0-.8.63-1.46,1.43-1.5.85-.03,1.53.6,1.57,1.42.01.08.01.15.01.22v.03c.03.4-.11.79-.38,1.08-.27.3-.63.48-1.03.5h-.08c-.8,0-1.46-.62-1.5-1.43h0ZM19.62,224.98c-.79-.04-1.42-.69-1.43-1.49v-.32c.04-.83.73-1.47,1.56-1.44.83.04,1.47.74,1.44,1.56v.25c-.05.81-.7,1.44-1.51,1.44h-.07.01ZM14.59,223.26v-.29c0-.82.62-1.48,1.44-1.51.83-.03,1.52.61,1.56,1.43h0v.26c.01.4-.13.78-.4,1.07-.27.3-.64.47-1.04.48h-.06c-.81,0-1.47-.63-1.5-1.44ZM19.8,220.74c-.82-.03-1.46-.7-1.45-1.51v-.29c.03-.83.72-1.5,1.55-1.45.4,0,.77.18,1.04.47.28.29.42.68.41,1.08v.25c-.03.81-.68,1.45-1.5,1.45h-.05ZM14.44,219.01v-.29c0-.82.63-1.48,1.45-1.5h.05c.81,0,1.47.63,1.5,1.45h0v.25c0,.4-.13.78-.4,1.07-.28.29-.65.46-1.05.47h-.05c-.81,0-1.47-.63-1.5-1.45h0ZM19.94,216.49c-.81-.02-1.47-.69-1.46-1.5v-.29c.02-.83.69-1.51,1.54-1.46.4,0,.77.18,1.05.47s.42.67.41,1.07v.25h0c-.03.82-.69,1.46-1.5,1.46h-.04,0ZM14.33,214.76v-.29c0-.81.65-1.48,1.45-1.5h.04c.81,0,1.48.66,1.5,1.46h0v.26c.03.82-.63,1.51-1.46,1.53h-.03c-.82,0-1.48-.64-1.5-1.46ZM20.04,212.24c-.8,0-1.46-.68-1.46-1.49v-.03h0v-.25c.02-.82.68-1.47,1.5-1.47h.04c.82.02,1.48.71,1.46,1.53v.26c-.02.81-.69,1.46-1.5,1.46h-.04ZM14.23,210.51v-.25s-.01-.03-.01-.04c.01-.82.65-1.48,1.47-1.49h.03c.81,0,1.48.65,1.5,1.46h0c0,.09.01.17.01.26.02.82-.64,1.51-1.47,1.53h-.03c-.82,0-1.48-.65-1.5-1.47ZM18.66,206.51v-.29c.01-.81.68-1.48,1.5-1.48h.02c.83.02,1.49.7,1.48,1.53v.25c0,.82-.69,1.48-1.5,1.48h-.03c-.8-.02-1.46-.69-1.47-1.49ZM14.15,206.26v-.29c0-.82.66-1.47,1.48-1.48h.03c.8,0,1.47.65,1.49,1.45v.27c0,.4-.14.78-.42,1.07-.28.28-.66.45-1.06.45h-.02c-.82,0-1.49-.66-1.5-1.47ZM18.73,202.27v-.3c0-.81.68-1.47,1.5-1.47h.02c.4,0,.78.17,1.06.46.27.28.42.66.42,1.06v.27c-.02.8-.69,1.46-1.5,1.46h-.02c-.81,0-1.47-.68-1.48-1.48h0ZM14.08,202.01v-.29c0-.82.66-1.47,1.48-1.48h.02c.82,0,1.49.66,1.5,1.48h0v.25c0,.82-.65,1.51-1.48,1.52h-.02c-.81,0-1.49-.66-1.5-1.48h0ZM18.79,197.98v-.25c.01-.82.68-1.48,1.5-1.48h.02c.4,0,.77.17,1.05.45.28.29.43.67.43,1.07v.27c-.02.8-.69,1.46-1.5,1.46h-.02c-.82,0-1.48-.69-1.48-1.52h0ZM14.02,197.76v-.29c0-.82.66-1.47,1.48-1.48h.02c.81,0,1.49.67,1.49,1.48,0,.04.01.09.01.13v.12c0,.4-.15.78-.43,1.07-.28.29-.65.45-1.05.45h-.02c-.82,0-1.49-.66-1.5-1.48h0ZM18.84,193.73h.01v-.24c0-.81.68-1.48,1.5-1.48h0c.4,0,.78.17,1.06.45.28.29.43.67.43,1.07v.13s-.01.08-.01.12c0,.82-.68,1.48-1.5,1.48h0c-.83,0-1.49-.69-1.49-1.52h0ZM13.97,193.51v-.25c0-.82.66-1.5,1.49-1.51h.02c.81,0,1.48.66,1.49,1.48h0v.25c0,.4-.15.78-.43,1.07-.28.28-.66.44-1.06.45h-.01c-.82,0-1.5-.67-1.5-1.49ZM18.89,189.49v-.25c0-.82.68-1.49,1.52-1.49.4,0,.77.17,1.05.45.28.29.44.67.43,1.07v.25c-.01.82-.68,1.48-1.5,1.48h-.01c-.82,0-1.49-.68-1.48-1.51h-.01ZM13.92,189.27v-.25c0-.41.15-.79.43-1.07.28-.29.65-.45,1.07-.45.82,0,1.49.67,1.5,1.48h0v.25c0,.41-.15.79-.43,1.07-.28.29-.65.44-1.05.45h-.02c-.82,0-1.49-.67-1.5-1.48ZM18.93,185.24v-.25c0-.82.68-1.49,1.51-1.49s1.5.69,1.49,1.52v.25c-.01.82-.68,1.49-1.5,1.49h-.01c-.83,0-1.5-.69-1.49-1.52ZM13.88,185.02v-.25c0-.83.66-1.51,1.49-1.52h0c.82,0,1.48.66,1.5,1.48h0v.26c.01.4-.15.78-.43,1.06-.28.29-.65.45-1.06.45h-.01c-.82,0-1.49-.67-1.5-1.48h.01ZM19.39,182.06c-.28-.29-.43-.66-.43-1.06v-.25c0-.82.68-1.49,1.5-1.49h0c.83,0,1.5.68,1.49,1.51v.25h0c-.02.83-.68,1.48-1.5,1.48h0c-.4,0-.78-.16-1.06-.44h0ZM13.85,180.76v-.24c-.01-.41.15-.78.43-1.07.28-.28.66-.44,1.07-.44.82,0,1.49.66,1.5,1.48v.25c0,.4-.15.78-.43,1.07-.28.28-.66.44-1.06.44h0c-.82,0-1.5-.66-1.5-1.49h-.01ZM19.42,177.81c-.28-.28-.43-.65-.43-1.05h0v-.26c0-.82.68-1.49,1.51-1.49s1.49.68,1.49,1.51v.25c0,.82-.68,1.49-1.5,1.49h0c-.4,0-.78-.16-1.06-.45h-.01ZM13.82,176.52v-.25c0-.83.66-1.51,1.5-1.51s1.49.67,1.5,1.49v.25c0,.4-.15.77-.43,1.06s-.66.44-1.06.45h0c-.82,0-1.5-.67-1.5-1.49h-.01ZM19.01,172.5v-.25c.01-.82.68-1.49,1.51-1.49.4,0,.78.16,1.06.44.28.29.44.66.43,1.06v.26c0,.82-.67,1.49-1.5,1.49h0c-.83,0-1.5-.68-1.5-1.51ZM13.79,172.27v-.25c0-.4.15-.78.44-1.07.28-.28.65-.44,1.06-.44.82,0,1.49.66,1.5,1.48h0v.26c0,.83-.66,1.51-1.49,1.51h0c-.82,0-1.49-.67-1.5-1.49h0ZM19.03,168.25v-.25c0-.82.68-1.49,1.51-1.49.4,0,.78.16,1.06.44.28.29.44.66.43,1.07v.25c0,.82-.68,1.49-1.5,1.49h0c-.83,0-1.5-.68-1.5-1.51h0ZM13.77,168.02v-.25c0-.83.67-1.5,1.5-1.51.83,0,1.5.67,1.5,1.49v.26c0,.39-.15.77-.43,1.06-.28.28-.66.44-1.06.44h0c-.82,0-1.5-.67-1.5-1.49h-.01ZM19.05,164v-.25c.01-.82.68-1.49,1.51-1.49s1.5.68,1.49,1.51v.25c0,.82-.67,1.49-1.5,1.49h0c-.82,0-1.49-.68-1.49-1.51h-.01ZM13.75,163.77v-.25c0-.4.15-.78.44-1.06.28-.29.66-.44,1.06-.45.83,0,1.5.67,1.5,1.5v.25c0,.4-.15.78-.43,1.06s-.66.44-1.06.44h0c-.82,0-1.49-.67-1.5-1.49h-.01ZM19.06,159.76v-.25c0-.83.67-1.5,1.5-1.5s1.5.68,1.5,1.51v.25c0,.82-.68,1.49-1.5,1.49h0c-.83,0-1.5-.68-1.5-1.5ZM13.74,159.52v-.25h0c0-.82.67-1.49,1.5-1.49s1.49.67,1.5,1.49v.25c0,.83-.67,1.5-1.5,1.51h0c-.83,0-1.5-.67-1.5-1.5h0ZM19.52,156.57c-.28-.28-.44-.65-.44-1.05h0v-.26c0-.83.67-1.5,1.5-1.5s1.5.68,1.5,1.51v.25c0,.82-.68,1.49-1.5,1.49h0c-.4,0-.77-.16-1.05-.44h-.01ZM13.73,155.27s-.01-.08-.01-.12v-.13c0-.83.67-1.5,1.5-1.5s1.5.67,1.5,1.49v.25c.01.83-.67,1.5-1.49,1.51h-.01c-.82,0-1.49-.68-1.49-1.5ZM19.53,152.32c-.29-.28-.44-.66-.44-1.06v-.25c0-.82.67-1.5,1.5-1.5s1.5.68,1.5,1.51v.25c0,.82-.67,1.49-1.5,1.49h0c-.4,0-.78-.16-1.06-.44ZM13.71,151.02v-.25c0-.83.67-1.5,1.5-1.5s1.5.67,1.5,1.5v.24c0,.4-.15.78-.43,1.07-.29.28-.66.44-1.06.44h0c-.82,0-1.5-.67-1.5-1.5h0ZM19.53,148.07c-.28-.28-.43-.66-.43-1.06v-.25c0-.82.67-1.49,1.5-1.49.4,0,.78.15,1.06.44.28.28.44.66.44,1.06v.25h0c-.01.82-.68,1.49-1.5,1.49h-.01c-.4,0-.77-.15-1.06-.44ZM13.7,146.77v-.25c0-.4.16-.77.44-1.06.28-.28.66-.44,1.07-.44.82,0,1.49.67,1.49,1.5v.25c0,.82-.67,1.5-1.49,1.5h0c-.83,0-1.5-.67-1.51-1.5ZM19.1,142.76v-.25c0-.82.68-1.5,1.5-1.5.4,0,.78.16,1.06.44s.44.66.44,1.06v.26c0,.82-.67,1.5-1.5,1.5h0c-.83,0-1.5-.68-1.5-1.51ZM13.7,142.52v-.25c0-.4.15-.77.44-1.06.28-.28.66-.44,1.06-.44.82,0,1.5.67,1.5,1.5v.25c0,.83-.67,1.5-1.5,1.5h0c-.83,0-1.5-.67-1.5-1.5ZM19.1,138.51v-.25c0-.82.67-1.49,1.5-1.49s1.49.67,1.49,1.5v.25c0,.82-.67,1.5-1.5,1.5h0c-.82,0-1.5-.68-1.5-1.51h.01ZM13.69,138.27v-.25c0-.82.68-1.5,1.5-1.5s1.5.67,1.5,1.5v.25c0,.83-.67,1.5-1.5,1.5s-1.49-.67-1.5-1.5ZM19.11,134.27v-.26c0-.82.67-1.49,1.5-1.49s1.5.67,1.5,1.5v.25c0,.82-.67,1.5-1.5,1.5s-1.5-.68-1.5-1.5ZM13.69,134.02v-.25c0-.82.67-1.5,1.51-1.5s1.49.68,1.49,1.5v.25c0,.4-.15.78-.44,1.06-.28.29-.66.44-1.06.44-.83,0-1.5-.67-1.5-1.5ZM19.11,130.02v-.25c0-.83.67-1.5,1.5-1.5s1.5.67,1.5,1.5v.25c0,.82-.67,1.5-1.5,1.5h0c-.83,0-1.5-.68-1.5-1.5ZM13.69,129.77v-.25c0-.82.67-1.5,1.5-1.5s1.5.68,1.5,1.5v.25c0,.83-.67,1.5-1.5,1.5s-1.5-.67-1.5-1.5ZM19.11,125.77v-.25c0-.83.67-1.5,1.49-1.5s1.51.67,1.51,1.49v.26c0,.39-.16.77-.44,1.05-.28.29-.66.45-1.06.45h0c-.83,0-1.5-.67-1.5-1.5ZM13.69,125.52v-.25c0-.82.67-1.5,1.5-1.5s1.5.68,1.5,1.5v.26c0,.82-.67,1.49-1.5,1.49s-1.5-.67-1.5-1.5ZM19.1,121.52v-.25c0-.4.15-.78.43-1.06.29-.28.66-.44,1.07-.44.82,0,1.5.67,1.5,1.49v.27c0,.39-.16.76-.44,1.04-.28.29-.65.45-1.06.45h0c-.82,0-1.5-.67-1.5-1.5ZM13.69,121.27v-.25c0-.82.67-1.49,1.5-1.49.41,0,.78.15,1.07.44s.43.66.43,1.06v.25c0,.82-.67,1.49-1.5,1.49h0c-.82,0-1.5-.67-1.5-1.5ZM19.08,117.28v-.25c0-.4.16-.78.44-1.07.28-.28.66-.44,1.06-.44.83,0,1.5.67,1.5,1.49v.25c0,.4-.15.78-.43,1.07-.28.28-.66.44-1.06.44h0c-.82,0-1.49-.67-1.5-1.49h-.01ZM13.7,117.02v-.25c0-.82.67-1.5,1.5-1.5.4,0,.78.16,1.06.45.28.28.44.66.44,1.06v.25c0,.82-.68,1.5-1.51,1.5h0c-.82,0-1.49-.68-1.49-1.51ZM19.06,113.04h0v-.26c0-.83.66-1.51,1.5-1.51s1.5.67,1.5,1.49v.25c0,.83-.66,1.5-1.49,1.51h0c-.81,0-1.48-.66-1.5-1.48h-.01ZM14.14,113.83c-.28-.28-.44-.66-.44-1.05v-.26c0-.82.68-1.49,1.5-1.49s1.5.67,1.5,1.5v.25c0,.82-.67,1.5-1.5,1.5h0c-.4,0-.78-.16-1.06-.45ZM19.03,108.78h0v-.25c0-.82.66-1.5,1.5-1.51.82,0,1.49.67,1.5,1.49v.25c0,.4-.15.78-.43,1.06-.28.29-.66.45-1.06.45h0c-.82,0-1.49-.67-1.5-1.49h-.01ZM13.71,108.53v-.25c0-.83.68-1.5,1.5-1.5.4,0,.78.16,1.06.44.29.28.44.66.44,1.06v.25c0,.83-.68,1.5-1.5,1.5h0c-.83,0-1.5-.68-1.5-1.5ZM18.99,104.55h0v-.26c0-.83.66-1.51,1.48-1.52h.02c.82,0,1.49.67,1.5,1.49v.25c0,.82-.66,1.5-1.48,1.51h-.02c-.81,0-1.48-.66-1.5-1.47ZM13.72,104.28v-.25c0-.83.68-1.5,1.51-1.5s1.49.68,1.49,1.5v.25c0,.83-.67,1.5-1.5,1.5h0c-.83,0-1.5-.68-1.5-1.5ZM18.94,100.29v-.25c0-.83.66-1.51,1.48-1.52h.02c.82,0,1.49.67,1.5,1.48v.29c0,.81-.67,1.47-1.48,1.48h0c-.82,0-1.5-.66-1.51-1.48h-.01ZM14.17,101.09c-.28-.29-.44-.66-.44-1.06v-.25c0-.83.68-1.5,1.51-1.5.4,0,.78.16,1.06.44.28.29.43.67.43,1.07v.25c0,.82-.67,1.49-1.5,1.49h0c-.4,0-.78-.16-1.06-.44ZM18.89,96.05v-.25c-.02-.83.64-1.51,1.47-1.53h.02c.82,0,1.49.67,1.5,1.48.01.05.01.09.01.13v.16c-.01.81-.67,1.47-1.48,1.49h-.02c-.82,0-1.49-.67-1.5-1.48ZM13.75,95.78v-.25c0-.83.68-1.5,1.5-1.5s1.5.68,1.5,1.51v.25c0,.82-.68,1.49-1.5,1.49h0c-.83,0-1.5-.68-1.49-1.5h-.01ZM18.82,91.8v-.25c-.02-.82.65-1.51,1.47-1.52h.03c.81,0,1.49.66,1.5,1.47v.29c0,.82-.65,1.47-1.47,1.49h-.03c-.81,0-1.48-.66-1.5-1.48ZM14.2,92.59c-.28-.28-.44-.66-.43-1.06v-.25c0-.83.67-1.5,1.5-1.5.83.01,1.5.68,1.5,1.51v.25c-.01.82-.68,1.49-1.51,1.49h0c-.4,0-.78-.15-1.06-.44ZM18.74,87.56h0v-.25c-.02-.83.64-1.51,1.47-1.53h.03c.81,0,1.48.66,1.5,1.47v.29c0,.82-.65,1.47-1.47,1.49h-.03c-.81,0-1.48-.66-1.5-1.47ZM13.79,87.28v-.25c0-.82.68-1.49,1.51-1.49.4,0,.77.16,1.05.44s.44.66.44,1.06v.25c0,.83-.68,1.5-1.5,1.5h0c-.83-.01-1.5-.68-1.49-1.51h-.01ZM18.66,83.31h0v-.25c-.02-.82.64-1.51,1.47-1.53h.03c.82,0,1.48.64,1.5,1.47v.29c0,.8-.66,1.47-1.47,1.49h-.03c-.82,0-1.48-.64-1.5-1.47ZM13.81,83.03v-.25c0-.82.68-1.49,1.51-1.49.4,0,.78.16,1.06.44.28.29.43.67.43,1.07v.25c0,.82-.68,1.49-1.5,1.49h-.01c-.82-.01-1.49-.68-1.49-1.51ZM18.56,79.07v-.25c-.02-.4.13-.78.4-1.07.28-.29.65-.46,1.05-.47h.04c.81,0,1.48.66,1.5,1.47,0,.08,0,.16.01.24v.04c0,.82-.65,1.48-1.46,1.5h-.04c-.83,0-1.48-.64-1.5-1.46ZM14.27,79.84c-.28-.28-.43-.66-.43-1.06v-.25c.01-.82.68-1.49,1.51-1.49s1.49.68,1.49,1.5h0v.26c0,.82-.68,1.49-1.5,1.49h0c-.4,0-.78-.16-1.06-.45h-.01ZM18.45,74.83v-.25c-.02-.83.63-1.52,1.46-1.54.83-.01,1.51.62,1.54,1.45v.29c0,.82-.63,1.48-1.45,1.51h-.05c-.8,0-1.47-.66-1.49-1.46h-.01ZM14.3,75.59c-.28-.28-.43-.66-.43-1.06v-.25c0-.82.67-1.49,1.51-1.49s1.49.69,1.48,1.52v.25c0,.82-.68,1.48-1.5,1.48h0c-.4,0-.78-.16-1.06-.45ZM18.32,70.59v-.25c-.02-.4.12-.78.4-1.07.27-.3.64-.47,1.04-.48.88-.05,1.52.62,1.55,1.45v.29c0,.81-.65,1.48-1.45,1.51h-.05c-.82,0-1.48-.64-1.5-1.45h.01ZM13.91,70.28v-.25c0-.82.68-1.48,1.5-1.48h.02c.4,0,.77.16,1.05.44s.44.67.43,1.07v.25c0,.82-.68,1.49-1.5,1.49h0c-.83,0-1.5-.69-1.49-1.52h-.01ZM18.18,66.35c-.01-.09-.01-.17-.01-.25-.03-.83.62-1.52,1.44-1.55.83-.05,1.53.61,1.56,1.44v.25s.01.03.01.04c0,.81-.64,1.49-1.45,1.51h-.05c-.82,0-1.47-.63-1.5-1.44ZM14.38,67.1c-.28-.29-.43-.67-.43-1.07v-.25c0-.82.68-1.48,1.5-1.48h0c.81.01,1.47.67,1.48,1.47v.29c0,.82-.68,1.49-1.5,1.49h0c-.4,0-.78-.17-1.06-.45h0ZM18.02,62.11v-.06c-.01-.07-.01-.13-.01-.19-.02-.4.12-.78.4-1.08.27-.29.64-.46,1.04-.48.86-.03,1.52.61,1.56,1.44v.18s.01.05.01.07h0v.08c-.01.8-.64,1.45-1.44,1.48h-.06c-.81,0-1.47-.63-1.5-1.44ZM14.43,62.85c-.28-.29-.43-.66-.43-1.07v-.25h0c.02-.81.68-1.47,1.5-1.47h.02c.82,0,1.49.69,1.48,1.52v.25c-.02.82-.69,1.48-1.5,1.48h-.02c-.39,0-.77-.16-1.05-.45h0ZM17.84,57.87v-.25c-.03-.82.61-1.53,1.43-1.56.82-.03,1.53.6,1.57,1.43v.25h0v.08c0,.8-.63,1.45-1.43,1.48h-.07c-.8,0-1.46-.62-1.5-1.43ZM14.06,57.53v-.25c.02-.81.69-1.47,1.51-1.47h.02c.81,0,1.47.67,1.48,1.48v.29c-.01.81-.68,1.48-1.5,1.48h-.02c-.83-.02-1.49-.7-1.48-1.53h-.01ZM17.65,53.64c0-.09,0-.17-.02-.25-.04-.83.6-1.53,1.43-1.57h.07c.8,0,1.46.63,1.5,1.43v.25s.01.05.01.08c0,.79-.62,1.45-1.42,1.49h-.08c-.8,0-1.45-.62-1.49-1.42h0ZM15.6,54.81c-.82-.02-1.48-.7-1.47-1.52v-.25c.02-.82.69-1.48,1.5-1.48h.03c.8,0,1.47.68,1.47,1.49v.29c0,.81-.69,1.47-1.5,1.47,0,0-.03,0-.03,0ZM17.43,49.4h0c-.01-.09-.01-.17-.02-.25-.02-.4.12-.78.38-1.08.27-.3.64-.47,1.04-.49.82-.06,1.53.59,1.58,1.41v.33c.01.8-.62,1.46-1.41,1.5h-.09c-.79,0-1.45-.62-1.49-1.42h.01ZM15.68,50.56c-.83,0-1.49-.7-1.47-1.52v-.25h0c.02-.82.69-1.47,1.5-1.47h.03c.81,0,1.47.68,1.47,1.49v.29c-.02.81-.69,1.47-1.5,1.47h-.03,0ZM17.2,45.35c-.21.58-.77.97-1.4.97h-.03c-.41,0-.78-.17-1.06-.47-.27-.29-.42-.66-.41-1.06v-.25c.03-.81.7-1.47,1.5-1.47h.04c.7.02,1.29.53,1.43,1.19.22-.53.71-.89,1.3-.93.84-.05,1.54.59,1.59,1.41v.1s0,.1.02.15v.08c0,.79-.61,1.46-1.41,1.51h-.09c-.73,0-1.35-.53-1.48-1.23ZM17.07,41.53c-.29.35-.71.55-1.16.55h-.04c-.83-.03-1.48-.72-1.46-1.54v-.25c.03-.84.72-1.48,1.55-1.46.54,0,1.03.32,1.28.79.26-.3.64-.49,1.04-.52.84-.06,1.54.57,1.6,1.39,0,.07.01.15.02.23v.14c0,.77-.62,1.43-1.39,1.48h-.11c-.56,0-1.08-.31-1.33-.81ZM16.92,37.55c-.27.2-.58.3-.93.29-.82-.03-1.47-.73-1.44-1.56v-.25c.03-.83.74-1.49,1.56-1.44.43,0,.83.21,1.1.54.22-.15.47-.24.74-.27.83-.05,1.55.57,1.61,1.38,0,.07,0,.14.02.21v.16c0,.78-.61,1.43-1.39,1.49-.03,0-.07,0-.11,0-.45,0-.88-.21-1.17-.56h.01ZM16.74,33.5c-.19.07-.4.11-.59.1-.4-.02-.77-.19-1.04-.49-.27-.3-.41-.68-.39-1.08v-.25c.05-.82.76-1.48,1.58-1.43.33.02.65.15.91.36.12-.04.24-.06.36-.08.85-.06,1.56.54,1.63,1.37,0,.05,0,.11.02.17v.07c.01.06.01.11.01.16-.01.77-.59,1.4-1.36,1.47-.05,0-.09,0-.14,0h0c-.36,0-.71-.13-.99-.38ZM16.44,29.36h-.09c-.83-.05-1.45-.77-1.4-1.59v-.26c.06-.81.76-1.46,1.6-1.39.29.02.56.12.79.28.74.03,1.36.6,1.44,1.35,0,.08.02.16.03.25v.15c0,.77-.57,1.41-1.34,1.49-.05.01-.11.01-.16.01-.32,0-.62-.1-.88-.29h0ZM15.36,24.11v-.05c-.06-.19-.07-.39-.05-.58v-.07c0-.06.02-.13.03-.19.09-.81.86-1.41,1.66-1.32.75.09,1.32.72,1.33,1.48v.18l.02.2c.01.06.01.12.01.19,0,.75-.57,1.39-1.32,1.47-.06,0-.12.02-.18.02-.76,0-1.4-.57-1.49-1.33h-.01ZM16.97,21.16c-.38-.29-.61-.72-.61-1.2,0-.18.03-.35.08-.5.15-.74.78-1.27,1.6-1.21h.02c.17.03.46.06.82.34.37.27.6.85.57,1.2-.02.44-.12.62-.18.73-.02.03-.03.05-.05.09-.05.09-.09.14-.13.19l-.02.04c-.28.38-.74.61-1.21.61-.32,0-.63-.1-.89-.29Z"/>
        <path class="cls-10" d="M18.31,237.81c-.78-.2-1.26-.97-1.1-1.75.08-.75.72-1.33,1.49-1.33.83,0,1.5.67,1.5,1.5,0,.2-.04.38-.07.5-.17.68-.78,1.13-1.45,1.13-.12,0-.25,0-.37-.05ZM17.2,236.23h0Z"/>
      </g>
      <g>
        <path class="cls-4" d="M19.49,228.59c.55,0,1-.45,1-1v-.12c0-.55-.45-1-1-1s-1,.45-1,1v.12c0,.55.45,1,1,1Z"/>
        <path class="cls-4" d="M16.02,236.04s-.02-.1-.03-.15l-.02-.11v-.15c0-.5.36-.91.85-.99.54-.08,1.05.29,1.14.83,0,.08.03.16.04.23.04.27-.02.53-.17.75-.16.22-.39.36-.65.41-.06,0-.12,0-.17,0-.49,0-.9-.35-.98-.83h-.01ZM15.54,231.74l-.02-.25v-.08c0-.52.41-.95.93-.99.57-.05,1.03.38,1.07.92l.02.25c.04.55-.37,1.03-.92,1.07h-.08c-.52,0-.96-.41-1-.93h0ZM15.28,227.49l-.02-.25v-.06c0-.53.42-.97.95-.99.53-.05,1.02.4,1.05.94v.06c.01.06.01.13.01.19.02.27-.07.52-.25.72s-.43.32-.69.33h-.06c-.53,0-.97-.41-.99-.94ZM19.65,224.48c-.54-.02-.96-.46-.96-.99v-.3c.03-.55.49-1.01,1.04-.96.27,0,.52.13.7.32.18.2.27.46.26.72v.25c-.03.54-.47.96-1.01.96h-.04.01ZM15.09,223.23v-.27c0-.55.42-.99.96-1.01h.04c.54,0,.98.42,1,.96v.25c.02.55-.41,1.02-.97,1.04h-.03c-.54,0-.98-.43-1-.97h0ZM19.81,220.24c-.53-.02-.96-.47-.96-1.01v-.28c.02-.54.46-.96,1-.96h.03c.55.02.99.48.97,1.03v.25c-.03.54-.47.97-1.01.97h-.04.01ZM14.94,218.99v-.28c0-.54.43-.98.98-1h.02c.55,0,.99.42,1,.97v.25c.02.55-.42,1.01-.97,1.03h-.03c-.54,0-.98-.43-1-.97ZM19.95,215.99c-.55,0-.97-.45-.98-1v-.02s.01,0,.01-.02v-.24c.02-.53.46-.97,1-.97h.03c.55.02.99.48.97,1.03v.25c-.02.53-.47.97-1.01.97h-.02ZM14.82,214.74v-.27c0-.55.43-.99.98-1h.02c.54,0,.99.43,1,.97v.25c.02.55-.42,1.01-.97,1.03h-.03c-.54,0-.98-.43-1-.98ZM20.06,211.74c-.54,0-.98-.46-.98-.99v-.28c0-.54.46-.98,1-.98h.02c.27,0,.52.12.7.31.19.19.29.45.28.72v.25c-.02.54-.46.97-1,.97h-.02ZM14.73,210.49c0-.08,0-.16-.01-.24v-.03c.01-.55.44-.99.98-1h.03c.53,0,.98.44.99.98h0v.25c.01.27-.08.52-.27.71-.19.2-.43.31-.7.31h-.02c-.54,0-.99-.44-1-.98ZM19.16,206.5v-.27c0-.54.45-.98,1-.98h.01c.27,0,.52.11.71.3.18.19.28.45.28.71v.26c-.02.54-.46.97-1.01.97h-.02c-.54,0-.98-.45-.98-.99h.01ZM14.65,206.25v-.28c0-.55.44-.99.98-.99h.02c.55,0,.99.43,1,.98v.25c0,.27-.1.52-.28.71-.19.19-.44.3-.71.31h0c-.55,0-.99-.44-1-.98h0ZM19.23,202.26v-.28c0-.54.45-.98.99-.98h.02c.27,0,.52.11.7.3.19.19.29.45.29.71v.25c0,.55-.45.99-1,.99h-.01c-.54,0-.98-.45-.99-.99h0ZM14.58,202v-.28c0-.54.45-.98.99-.99h0c.55,0,1,.44,1,.99h0v.25c0,.26-.1.52-.29.71-.18.19-.43.3-.7.3h0c-.55,0-1-.44-1-.98h0ZM19.58,198.7c-.19-.19-.29-.44-.29-.71v-.25c0-.55.45-.99,1.01-.99s.99.46.99,1.01v.27c0,.53-.46.97-1,.97h0c-.27,0-.52-.11-.7-.3h0ZM14.52,197.75v-.27c0-.54.44-.99.98-.99h0c.55,0,1,.44,1,.98v.1c.01.05.01.1.01.15,0,.55-.44,1.01-.99,1.02h0c-.55,0-1-.45-1-.99h0ZM20.33,194.75c-.55,0-.99-.46-.99-1.01,0,0,0,0,.01,0v-.24c0-.54.45-.99,1-.99h0c.27,0,.52.11.7.3.19.19.29.45.29.71v.13s-.01.08-.01.12c0,.55-.45.99-1,.99h0ZM14.47,193.5v-.25c0-.55.44-1,1-1.01.54,0,.99.44,1,.98h0v.26c0,.26-.1.52-.29.71s-.44.3-.7.3h-.01c-.55,0-1-.44-1-.99ZM19.39,189.49h0v-.25c0-.54.46-.99,1.01-.99s.99.46.99,1.01v.25c-.01.55-.45.99-1,.99h-.01c-.55,0-1-.45-.99-1.01ZM14.42,189.25v-.25c0-.26.1-.52.28-.71.19-.19.44-.29.71-.3h0c.55,0,.99.45,1,.99v.25c0,.27-.1.52-.28.71-.19.19-.44.3-.71.3h-.01c-.55,0-.99-.44-1-.99h.01ZM20.42,186.26c-.27,0-.52-.11-.71-.3-.18-.19-.28-.44-.28-.71v-.25c0-.55.45-1,1.01-1s.99.46.99,1.01v.25h0c-.01.54-.46.99-1,.99h-.01ZM14.38,185v-.25c0-.55.44-1,1-1s1,.44,1,.99v.25c0,.26-.1.52-.29.71-.18.19-.43.29-.7.29h-.01c-.55,0-.99-.44-1-.99ZM19.46,181v-.25c0-.55.45-.99,1.01-.99.26,0,.51.1.7.29.19.19.29.45.29.71v.27c0,.54-.46.98-1,.98h0c-.55,0-.99-.46-.99-1.01h-.01ZM14.35,180.76v-.25c-.01-.27.1-.52.28-.71.19-.19.44-.3.72-.3.54,0,.99.44,1,.99h0v.25c0,.55-.44,1-.99,1.01h0c-.55,0-1-.45-1-.99h-.01ZM19.49,176.75v-.25c0-.55.45-.99,1.01-.99s.99.45.99,1v.25c0,.55-.46,1-1,1h0c-.55,0-.99-.46-.99-1.01h-.01ZM14.32,176.51v-.25c0-.27.1-.52.29-.71.18-.19.43-.3.71-.3.55,0,.99.45,1,.99v.25c0,.27-.1.52-.29.71-.19.19-.44.3-.71.3h0c-.55,0-1-.45-1-.99ZM19.8,173.21c-.19-.19-.29-.44-.29-.71v-.12s.01-.08.01-.13c0-.54.44-.99,1-.99.27,0,.52.11.71.3.18.19.29.44.28.7v.25c0,.55-.45,1-.99,1h-.01c-.27,0-.52-.11-.71-.3h0ZM14.29,172.26v-.25c0-.55.44-1.01,1-1.01s1,.45,1,1v.25c0,.26-.1.52-.29.71-.18.19-.43.29-.7.29h0c-.55,0-1-.44-1.01-.99ZM19.82,168.96c-.18-.19-.29-.44-.29-.71h0v-.24c0-.55.44-1,1-1s1,.45.99,1v.25c0,.55-.45,1-1,1h0c-.27,0-.52-.11-.71-.3h.01ZM14.27,168.01v-.25c0-.55.44-1,1-1.01.55,0,1,.45,1,1v.25c0,.27-.1.52-.29.71s-.44.29-.71.29h0c-.55,0-1-.44-1-.99ZM19.55,164.01h0v-.25c0-.55.45-1,1.01-1,.26,0,.51.11.7.3s.29.44.29.7v.25c0,.55-.45,1-1,1h0c-.55,0-1-.45-1-1ZM14.25,163.76v-.25c0-.27.1-.52.29-.71s.44-.29.71-.29c.55,0,1,.44,1,.99v.25c0,.55-.44,1-.99,1.01h0c-.55,0-1-.45-1-1h-.01ZM19.57,159.76v-.25c0-.55.45-1,1-1s1,.45,1,1.01v.25c0,.54-.46.99-1.01.99h0c-.55,0-1-.45-.99-1ZM14.24,159.51v-.25c0-.55.44-1,1-1s.99.45,1,1v.25c0,.55-.45,1-1,1h0c-.54,0-.99-.45-.99-1h-.01ZM20.58,156.51c-.27,0-.52-.1-.71-.29s-.29-.44-.29-.71v-.25c0-.55.45-1,1-1,.27,0,.52.11.71.3s.29.44.29.7v.25c0,.55-.45,1-1,1h0ZM14.23,155.26s-.01-.08-.01-.12v-.13c0-.55.45-1,1-1s1,.45,1,1v.25c0,.26-.1.52-.29.71s-.44.29-.7.29h0c-.55,0-1-.45-1-1ZM19.59,151.26v-.25c0-.55.45-1,1-1,.27,0,.52.11.71.3.18.19.29.44.29.7v.26c0,.55-.45.99-1,.99h0c-.55,0-1-.45-1-1ZM14.21,151.01v-.25c0-.55.45-1,1-1s1,.45,1,1v.25c0,.27-.1.52-.29.71s-.44.29-.7.29h0c-.55,0-1-.45-1-1h0ZM19.6,147.01v-.25c0-.55.45-1,1-1s1,.46,1,1.01v.25c-.01.55-.45.99-1,.99h0c-.56,0-1-.45-1-1ZM14.2,146.77v-.26c0-.55.45-.99,1-1,.55,0,1,.45,1,1h0v.25c0,.55-.44,1-.99,1h0c-.55,0-1-.44-1.01-.99ZM19.89,143.47c-.19-.19-.29-.44-.29-.71v-.25c0-.55.45-.99,1-.99s1,.44,1,1v.24c0,.56-.45,1-.99,1h0c-.27,0-.52-.1-.71-.29h-.01ZM14.2,142.52v-.25c0-.56.45-1.01,1-1.01s1,.45,1,1v.25c0,.55-.45,1-1,1h0c-.55,0-1-.44-1-.99ZM19.9,139.22c-.19-.19-.29-.44-.29-.71v-.25c0-.55.45-.99,1-.99s.99.44.99,1v.25c0,.55-.44,1-.99,1-.27,0-.52-.11-.71-.3h0ZM14.19,138.27v-.25c0-.56.45-1,1.01-1s.99.44.99,1v.24c0,.56-.44,1.01-1,1.01h0c-.55,0-.99-.45-1-1ZM19.61,134.27v-.26c0-.55.45-.99,1-.99s1,.44,1,1v.25c0,.55-.45,1-1,1h0c-.55,0-1-.45-1-1ZM14.19,134.02v-.25c0-.55.45-1,1-1s1,.45,1,1v.25c0,.55-.45,1-1,1s-1-.45-1-1ZM19.61,130.01v-.24c0-.55.45-1,1-1s1,.45,1,1v.25c0,.55-.45,1-1,1s-1-.45-1-1.01ZM14.19,129.77v-.25c0-.55.45-1,1-1s1,.45,1,1v.25c0,.55-.45,1-1,1s-1-.45-1-1ZM19.61,125.77v-.25c0-.55.45-1,1-1s1,.44,1,1v.25c0,.26-.1.51-.29.7-.19.19-.44.3-.71.3-.55,0-1-.45-1-1ZM14.19,125.52v-.25c0-.55.45-1,1-1s1,.45,1,1h0v.25c0,.55-.45,1-1,1s-1-.45-1-1ZM19.6,121.52v-.25c0-.55.45-1,1-1s1,.44,1,1v.25h0c-.01.54-.45.98-1,.99h0c-.55,0-1-.45-1-1h0ZM14.19,121.27v-.25c0-.55.45-1,1-1s1,.45,1,1v.25c0,.55-.45,1-.99,1h0c-.55,0-1-.45-1-1h0ZM19.58,117.27v-.25c0-.26.11-.52.29-.71.19-.18.44-.29.71-.29.55,0,1,.45,1,.99v.25c0,.56-.44,1.01-.99,1.01h0c-.56,0-1-.45-1.01-1ZM14.2,117.02v-.25c0-.55.45-1,1-1,.27,0,.52.1.71.29s.29.44.29.71v.25c0,.55-.46,1-1.01,1s-.99-.45-.99-1ZM19.56,113.02h0v-.24c0-.27.1-.52.29-.71s.44-.3.71-.3c.55,0,1,.45,1,.99v.25c0,.55-.44,1.01-.99,1.01h0c-.55,0-1-.45-1-1h-.01ZM14.49,113.48c-.18-.19-.29-.45-.29-.71v-.25h0c0-.55.45-1,1.01-1s.99.45.99,1v.25c0,.55-.45,1-1,1-.27,0-.52-.1-.71-.29ZM19.53,108.78v-.25c0-.27.1-.52.29-.71.18-.19.43-.3.71-.3.55,0,1,.45,1,.99v.25c0,.27-.1.52-.29.71-.18.19-.43.3-.7.3h0c-.55,0-.99-.44-1-.99h0ZM14.5,109.23c-.19-.19-.29-.44-.29-.71v-.25c0-.55.45-1,1-1s1,.45,1,1v.25c0,.55-.45,1-1,1-.27,0-.52-.1-.71-.29ZM19.49,104.53v-.25c0-.27.1-.52.28-.71.19-.19.44-.29.72-.3.54,0,.99.45,1,.99v.25c0,.55-.44,1.01-.99,1.01h0c-.54,0-.99-.44-1-.99h-.01ZM14.51,104.98c-.19-.19-.29-.44-.29-.71v-.25c0-.55.45-1,1-1s1,.46,1,1.01h0v.24c0,.55-.45,1-1,1h0c-.27,0-.52-.1-.71-.29ZM19.44,100.29v-.25c0-.27.1-.52.28-.71.19-.2.44-.3.72-.31.55,0,.99.45,1,.99v.25c0,.55-.43,1.01-.98,1.01h-.02c-.54,0-.99-.44-1-.98ZM14.52,100.73c-.19-.19-.29-.44-.29-.71v-.25c0-.55.46-1,1.01-1s1,.46.99,1.01v.25c0,.55-.45,1-1,1h0c-.27,0-.52-.11-.71-.3ZM19.39,96.04v-.13s-.01-.08-.01-.12c0-.55.43-1.01,1-1.02.54,0,1,.45,1,.99,0,.07.01.13.01.2v.05h0v.03c-.01.53-.45.98-.99.98h0c-.55,0-.99-.44-1-.98h-.01ZM14.54,96.48c-.19-.19-.29-.44-.29-.71v-.25c0-.55.45-.99,1-.99.27,0,.52.1.71.29s.29.44.29.71v.25c0,.55-.45,1-1,1h0c-.26,0-.51-.11-.7-.3h-.01ZM19.32,91.79v-.25c0-.26.09-.52.28-.71.18-.19.43-.3.7-.3h.02c.54,0,.99.44.99.98v.28c0,.54-.44.98-.98.99h-.02c-.54,0-.99-.44-1-.99h0ZM14.56,92.23c-.19-.19-.29-.44-.29-.71v-.25c0-.55.45-.99,1-.99.27,0,.52.1.71.29s.29.45.29.71v.25c-.01.55-.46,1-1,1h-.01c-.27,0-.52-.11-.7-.3ZM19.24,87.55v-.25c0-.27.09-.52.28-.71.18-.2.43-.31.7-.31h.02c.54,0,.99.44,1,.98v.28c0,.54-.43.98-.97.99h-.03c-.54,0-.99-.44-1-.98ZM14.58,87.98c-.19-.19-.29-.44-.29-.71v-.25h0c0-.54.45-.99,1-.99.27,0,.52.11.71.3s.29.44.29.7v.25c0,.55-.46,1-1.01,1h0c-.27,0-.52-.11-.7-.3ZM19.15,83.3v-.25c0-.27.09-.52.28-.71.18-.19.43-.3.7-.31h.02c.54,0,.99.44,1,.98v.27c0,.55-.43.99-.97,1h-.02c-.55,0-.99-.43-1.01-.98ZM14.31,83.02v-.25c0-.54.45-.99,1.01-.99.27,0,.52.11.7.3.19.19.29.44.29.71v.25c0,.55-.45.99-1,.99h0c-.56,0-1-.45-1-1.01ZM19.05,79.06s0-.01.01-.02v-.07s-.01-.11-.01-.16c0-.27.09-.52.27-.72.19-.19.44-.3.7-.31h.03c.55,0,.99.43,1,.98v.28c.01.53-.43.98-.97.99h-.03c-.54,0-.98-.43-1-.97ZM14.34,78.78v-.25c.01-.55.45-1,1.01-1,.55.01,1,.46.99,1.01h0v.25c0,.55-.45.99-1,.99h0c-.55,0-.99-.45-.99-1h-.01ZM18.94,74.81v-.24c-.02-.56.41-1.02.97-1.03h.02c.54,0,.99.43,1,.97v.27c0,.55-.42.99-.97,1.01h-.03c-.54,0-.98-.43-1-.98h.01ZM14.66,75.24c-.19-.19-.29-.44-.29-.71v-.25c0-.55.45-.99,1-.99.27,0,.52.11.71.3s.29.44.29.71h0v.24c0,.55-.45,1-1,1h0c-.26-.01-.51-.11-.7-.3h-.01ZM18.82,70.57v-.25c-.02-.55.41-1.01.96-1.03h.04c.54,0,.98.43,1,.97v.26h0c0,.55-.42.99-.97,1.01h-.03c-.54,0-.98-.43-.99-.97h-.01ZM14.41,70.28v-.25c0-.55.46-.99,1.01-.99s1,.46.99,1.01v.25c0,.55-.45.99-1,.99h0c-.55-.01-.99-.46-.99-1.01h-.01ZM18.67,66.33v-.25c-.02-.55.42-1.01.97-1.03.6-.03,1.01.41,1.03.96v.27c.01.55-.42,1-.96,1.01h-.04c-.54,0-.98-.42-1-.96ZM14.46,66.03v-.25c0-.54.45-.99,1.01-.99s.99.46.99,1.01h0v.25c0,.55-.45.99-.99.99h0c-.55-.01-.99-.46-.98-1.01h-.03ZM18.51,62.09v-.25c-.02-.55.41-1.02.96-1.04.56-.04,1.02.41,1.04.96v.3c0,.53-.42.97-.96.99h-.04c-.54,0-.98-.42-1-.96ZM14.5,61.78v-.25h0c.01-.54.46-.97.99-.97h.02c.55,0,.99.46.99,1.01v.25c0,.54-.46.98-1,.98h-.02c-.55,0-.99-.46-.99-1.01h.01ZM18.34,57.85v-.25c-.02-.27.08-.52.26-.72s.42-.31.69-.32c.55-.04,1.02.4,1.04.95v.25s.02.04.02.05c0,.54-.43.97-.96.99-.02,0-.03,0-.05,0-.53,0-.97-.42-.99-.96h-.01ZM15.55,58.55c-.27,0-.52-.11-.71-.3-.18-.2-.28-.45-.28-.71v-.26c0-.54.46-.98,1.02-.98.54,0,.98.45.99.99v.27c-.01.55-.46.99-1,.99h-.02ZM18.14,53.61v-.25c-.03-.26.07-.52.24-.72.18-.2.43-.31.7-.32.55-.03,1.02.39,1.04.94v.19s.01.04.01.06v.06c0,.53-.42.97-.95.99h-.05c-.54,0-.98-.42-1-.95h.01ZM14.63,53.29v-.25c.01-.54.46-.99,1-.99h.02c.55,0,.98.45.98,1v.27c0,.54-.46.98-1,.98h-.02c-.55,0-.99-.46-.98-1.01ZM17.92,49.38v-.25c-.05-.55.38-1.03.93-1.06.58-.03,1.02.4,1.05.95v.25s.02.03.02.05c0,.53-.42.97-.95,1h-.05c-.53,0-.97-.41-1-.94ZM14.99,49.75c-.19-.19-.29-.44-.28-.71v-.25c0-.54.46-.98,1-.98h.02c.55,0,.98.45.98.99v.28c0,.54-.46.98-1.01.98h0c-.27,0-.52-.11-.7-.31h-.01ZM17.67,45.14h0v-.25c-.04-.55.38-1.02.93-1.06.57-.05,1.03.39,1.06.94v.08c0,.06.02.11.02.17v.05c.01.53-.41.98-.94,1.01h-.06c-.53,0-.96-.41-1-.94h-.01ZM15.78,45.81c-.56,0-.99-.47-.98-1.02,0-.06,0-.13.01-.19v-.02s-.01-.03,0-.04h0c.02-.55.45-.97.99-.97h.03c.54,0,.97.46.97.99v.02s.01,0,.01,0v.25c-.02.54-.47.97-1.01.97,0,0-.02,0-.02,0ZM17.4,40.91c0-.08-.02-.16-.02-.25-.02-.26.07-.52.24-.72.18-.2.42-.32.69-.34.52-.03,1.02.38,1.06.92v.07c0,.06.02.12.02.18v.08c0,.52-.41.96-.93.99h-.07c-.52,0-.96-.4-.99-.93ZM15.88,41.57c-.27,0-.51-.12-.7-.31-.18-.19-.28-.45-.27-.72v-.25h0c.02-.55.46-.97,1-.97h.02c.54.02.98.47.98,1.01v.27c-.02.55-.46.97-1.01.97h-.03.01ZM17.08,36.69v-.25c-.04-.55.38-1.03.92-1.08.57-.04,1.04.38,1.08.92,0,.08,0,.17.02.25v.08c0,.52-.4.96-.92,1h-.08c-.52,0-.95-.41-1-.92h-.02ZM16.01,37.33c-.27,0-.52-.12-.7-.32-.18-.19-.27-.45-.26-.72v-.25c.02-.55.44-.99,1.04-.96.55.02.97.47.96,1.01h0v.28c-.03.54-.46.96-1,.96,0,0-.04,0-.04,0ZM16.85,32.86c-.19.16-.43.25-.68.23-.27,0-.51-.13-.69-.32-.18-.2-.28-.46-.26-.72,0-.09,0-.17.01-.25.02-.55.48-.99,1.04-.96.34.02.65.21.82.5.15-.12.33-.19.52-.21.54-.05,1.04.37,1.09.91v.06c0,.06.02.13.02.19.01.02.01.05.01.08,0,.51-.4.96-.91,1-.03,0-.06,0-.09,0-.37,0-.7-.2-.88-.52ZM16.6,28.85c-.07.01-.14.01-.22.01-.55-.04-.97-.52-.93-1.07v-.25c.05-.54.53-.96,1.08-.93.25.02.48.12.65.3h0c.56-.05,1.04.34,1.1.89,0,.06,0,.11.02.17v.08h0v.1c0,.52-.38.94-.9,1h-.1c-.27,0-.53-.11-.72-.3h.02ZM15.86,24.05v-.11c-.06-.14-.07-.28-.05-.41,0-.09,0-.18.02-.26.07-.54.57-.94,1.11-.88.5.06.88.48.89.99v.18l.02.1s0,.1.02.16v.12c0,.51-.38.93-.88.99-.04,0-.08.01-.12.01-.5,0-.93-.38-.99-.89h-.02ZM17.24,20.74c-.24-.19-.39-.47-.39-.78,0-.15.03-.3.09-.42.11-.5.59-.85,1.11-.78.12.02.31.05.54.23.24.19.38.56.36.8-.07.51-.17.61-.24.68-.02.03-.04.06-.07.09-.19.25-.48.39-.79.39-.22,0-.43-.07-.61-.21Z"/>
        <path class="cls-4" d="M18.42,237.34c-.53-.13-.85-.66-.73-1.19.05-.51.47-.91,1-.91s1,.45,1,1c0,.15-.03.29-.05.38-.12.45-.52.75-.97.75-.08,0-.17,0-.25-.03ZM17.69,236.24h0Z"/>
      </g>
    </g>
    <rect class="cls-5" x="17.7" y="26" width="239" height="6.4"/>
    <rect class="cls-5" x="17.7" y="35.5" width="239" height="6.4"/>
    <rect class="cls-5" x="17.7" y="45" width="239" height="6.4"/>
    <rect class="cls-5" x="17.7" y="54.5" width="239" height="6.4"/>
    <rect class="cls-8" x="17.7" y="64" width="239" height="6.4"/>
    <rect class="cls-8" x="17.7" y="73.5" width="239" height="6.4"/>
    <rect class="cls-8" x="17.7" y="83" width="239" height="6.4"/>
    <rect class="cls-8" x="17.7" y="92.5" width="239" height="6.4"/>
    <rect class="cls-8" x="17.7" y="102" width="239" height="6.4"/>
    <rect class="cls-8" x="17.7" y="111.5" width="239" height="6.4"/>
    <rect class="cls-8" x="17.7" y="121" width="239" height="6.4"/>
    <rect class="cls-8" x="17.7" y="130.5" width="239" height="6.4"/>
    <rect class="cls-8" x="17.7" y="140" width="239" height="6.4"/>
    <rect class="cls-8" x="17.7" y="149.5" width="239" height="6.4"/>
    <rect class="cls-8" x="17.7" y="159" width="239" height="6.4"/>
    <rect class="cls-8" x="17.7" y="168.5" width="239" height="6.4"/>
    <rect class="cls-8" x="17.7" y="178" width="239" height="6.4"/>
    <rect class="cls-8" x="17.7" y="187.5" width="239" height="6.4"/>
    <rect class="cls-8" x="17.7" y="197" width="239" height="6.4"/>
    <rect class="cls-8" x="17.7" y="206.5" width="239" height="6.4"/>
    <rect class="cls-8" x="17.7" y="216" width="239" height="6.4"/>
    <rect class="cls-8" x="17.7" y="225.5" width="239" height="6.4"/>
    <g>
      <rect class="cls-9" x="17.7" y="33" width="239" height="1.7"/>
      <rect class="cls-9" x="17.7" y="42.5" width="239" height="1.7"/>
      <rect class="cls-9" x="17.7" y="52" width="239" height="1.7"/>
      <rect class="cls-9" x="17.7" y="61.5" width="239" height="1.7"/>
      <rect class="cls-9" x="17.7" y="71" width="239" height="1.7"/>
      <rect class="cls-9" x="17.7" y="80.5" width="239" height="1.7"/>
      <rect class="cls-9" x="17.7" y="90" width="239" height="1.7"/>
      <rect class="cls-9" x="17.7" y="99.5" width="239" height="1.7"/>
      <rect class="cls-9" x="17.7" y="109" width="239" height="1.7"/>
      <rect class="cls-9" x="17.7" y="118.5" width="239" height="1.7"/>
      <rect class="cls-9" x="17.7" y="128" width="239" height="1.7"/>
      <rect class="cls-9" x="17.7" y="137.5" width="239" height="1.7"/>
      <rect class="cls-9" x="17.7" y="147" width="239" height="1.7"/>
      <rect class="cls-9" x="17.7" y="156.5" width="239" height="1.7"/>
      <rect class="cls-9" x="17.7" y="166" width="239" height="1.7"/>
      <rect class="cls-9" x="17.7" y="175.5" width="239" height="1.7"/>
      <rect class="cls-9" x="17.7" y="185" width="239" height="1.7"/>
      <rect class="cls-9" x="17.7" y="194.5" width="239" height="1.7"/>
      <rect class="cls-9" x="17.7" y="204" width="239" height="1.7"/>
      <rect class="cls-9" x="17.7" y="213.5" width="239" height="1.7"/>
      <rect class="cls-9" x="17.7" y="223" width="239" height="1.7"/>
      <rect class="cls-9" x="17.7" y="232.5" width="239" height="1.7"/>
    </g>
    <rect class="cls-6" x="32.1" y="26" width="2" height="6.4"/>
    <rect class="cls-6" x="35.1" y="26" width="2" height="6.4"/>
    <rect class="cls-6" x="31.2" y="33" width="2" height="1.7"/>
    <rect class="cls-6" x="34.1" y="33" width="2" height="1.7"/>
    <rect class="cls-6" x="32.1" y="35.5" width="2" height="6.4"/>
    <rect class="cls-6" x="35.1" y="35.5" width="2" height="6.4"/>
    <rect class="cls-6" x="31.2" y="42.5" width="2" height="1.7"/>
    <rect class="cls-6" x="34.1" y="42.5" width="2" height="1.7"/>
    <rect class="cls-6" x="61.7" y="26" width="2" height="6.4"/>
    <rect class="cls-6" x="64.6" y="26" width="2" height="6.4"/>
    <rect class="cls-6" x="60.7" y="33" width="2" height="1.7"/>
    <rect class="cls-6" x="63.6" y="33" width="2" height="1.7"/>
    <rect class="cls-6" x="61.7" y="35.5" width="2" height="6.4"/>
    <rect class="cls-6" x="64.6" y="35.5" width="2" height="6.4"/>
    <rect class="cls-6" x="60.7" y="42.5" width="2" height="1.7"/>
    <rect class="cls-6" x="63.6" y="42.5" width="2" height="1.7"/>
    <rect class="cls-6" x="91.2" y="26" width="2" height="6.4"/>
    <rect class="cls-6" x="94.2" y="26" width="2" height="6.4"/>
    <rect class="cls-6" x="90.2" y="33" width="2" height="1.7"/>
    <rect class="cls-6" x="93.2" y="33" width="2" height="1.7"/>
    <rect class="cls-6" x="91.2" y="35.5" width="2" height="6.4"/>
    <rect class="cls-6" x="94.2" y="35.5" width="2" height="6.4"/>
    <rect class="cls-6" x="90.2" y="42.5" width="2" height="1.7"/>
    <rect class="cls-6" x="93.2" y="42.5" width="2" height="1.7"/>
    <rect class="cls-6" x="120.8" y="26" width="2" height="6.4"/>
    <rect class="cls-6" x="123.7" y="26" width="2" height="6.4"/>
    <rect class="cls-6" x="119.8" y="33" width="2" height="1.7"/>
    <rect class="cls-6" x="122.7" y="33" width="2" height="1.7"/>
    <rect class="cls-6" x="120.8" y="35.5" width="2" height="6.4"/>
    <rect class="cls-6" x="123.7" y="35.5" width="2" height="6.4"/>
    <rect class="cls-6" x="119.8" y="42.5" width="2" height="1.7"/>
    <rect class="cls-6" x="122.7" y="42.5" width="2" height="1.7"/>
    <rect class="cls-6" x="150.3" y="26" width="2" height="6.4"/>
    <rect class="cls-6" x="153.2" y="26" width="2" height="6.4"/>
    <rect class="cls-6" x="149.3" y="33" width="2" height="1.7"/>
    <rect class="cls-6" x="152.3" y="33" width="2" height="1.7"/>
    <rect class="cls-6" x="150.3" y="35.5" width="2" height="6.4"/>
    <rect class="cls-6" x="153.2" y="35.5" width="2" height="6.4"/>
    <rect class="cls-6" x="149.3" y="42.5" width="2" height="1.7"/>
    <rect class="cls-6" x="152.3" y="42.5" width="2" height="1.7"/>
    <rect class="cls-6" x="179.8" y="26" width="2" height="6.4"/>
    <rect class="cls-6" x="182.8" y="26" width="2" height="6.4"/>
    <rect class="cls-6" x="178.8" y="33" width="2" height="1.7"/>
    <rect class="cls-6" x="181.8" y="33" width="2" height="1.7"/>
    <rect class="cls-6" x="179.8" y="35.5" width="2" height="6.4"/>
    <rect class="cls-6" x="182.8" y="35.5" width="2" height="6.4"/>
    <rect class="cls-6" x="178.8" y="42.5" width="2" height="1.7"/>
    <rect class="cls-6" x="181.8" y="42.5" width="2" height="1.7"/>
    <rect class="cls-6" x="209.4" y="26" width="2" height="6.4"/>
    <rect class="cls-6" x="212.3" y="26" width="2" height="6.4"/>
    <rect class="cls-6" x="208.4" y="33" width="2" height="1.7"/>
    <rect class="cls-6" x="211.3" y="33" width="2" height="1.7"/>
    <rect class="cls-6" x="209.4" y="35.5" width="2" height="6.4"/>
    <rect class="cls-6" x="212.3" y="35.5" width="2" height="6.4"/>
    <rect class="cls-6" x="208.4" y="42.5" width="2" height="1.7"/>
    <rect class="cls-6" x="211.3" y="42.5" width="2" height="1.7"/>
    <rect class="cls-6" x="238.9" y="26" width="2" height="6.4"/>
    <rect class="cls-6" x="241.9" y="26" width="2" height="6.4"/>
    <rect class="cls-6" x="237.9" y="33" width="2" height="1.7"/>
    <rect class="cls-6" x="240.9" y="33" width="2" height="1.7"/>
    <rect class="cls-6" x="238.9" y="35.5" width="2" height="6.4"/>
    <rect class="cls-6" x="241.9" y="35.5" width="2" height="6.4"/>
    <rect class="cls-6" x="237.9" y="42.5" width="2" height="1.7"/>
    <rect class="cls-6" x="240.9" y="42.5" width="2" height="1.7"/>
    <rect class="cls-6" x="32.1" y="45" width="2" height="6.4"/>
    <rect class="cls-6" x="35.1" y="45" width="2" height="6.4"/>
    <rect class="cls-6" x="31.2" y="52" width="2" height="1.7"/>
    <rect class="cls-6" x="34.1" y="52" width="2" height="1.7"/>
    <rect class="cls-6" x="32.1" y="54.5" width="2" height="6.4"/>
    <rect class="cls-6" x="35.1" y="54.5" width="2" height="6.4"/>
    <rect class="cls-6" x="31.2" y="61.5" width="2" height="1.7"/>
    <rect class="cls-6" x="34.1" y="61.5" width="2" height="1.7"/>
    <rect class="cls-6" x="61.7" y="45" width="2" height="6.4"/>
    <rect class="cls-6" x="64.6" y="45" width="2" height="6.4"/>
    <rect class="cls-6" x="60.7" y="52" width="2" height="1.7"/>
    <rect class="cls-6" x="63.6" y="52" width="2" height="1.7"/>
    <rect class="cls-6" x="61.7" y="54.5" width="2" height="6.4"/>
    <rect class="cls-6" x="64.6" y="54.5" width="2" height="6.4"/>
    <rect class="cls-6" x="60.7" y="61.5" width="2" height="1.7"/>
    <rect class="cls-6" x="63.6" y="61.5" width="2" height="1.7"/>
    <rect class="cls-6" x="91.2" y="45" width="2" height="6.4"/>
    <rect class="cls-6" x="94.2" y="45" width="2" height="6.4"/>
    <rect class="cls-6" x="90.2" y="52" width="2" height="1.7"/>
    <rect class="cls-6" x="93.2" y="52" width="2" height="1.7"/>
    <rect class="cls-6" x="91.2" y="54.5" width="2" height="6.4"/>
    <rect class="cls-6" x="94.2" y="54.5" width="2" height="6.4"/>
    <rect class="cls-6" x="90.2" y="61.5" width="2" height="1.7"/>
    <rect class="cls-6" x="93.2" y="61.5" width="2" height="1.7"/>
    <rect class="cls-6" x="120.8" y="45" width="2" height="6.4"/>
    <rect class="cls-6" x="123.7" y="45" width="2" height="6.4"/>
    <rect class="cls-6" x="119.8" y="52" width="2" height="1.7"/>
    <rect class="cls-6" x="122.7" y="52" width="2" height="1.7"/>
    <rect class="cls-6" x="120.8" y="54.5" width="2" height="6.4"/>
    <rect class="cls-6" x="123.7" y="54.5" width="2" height="6.4"/>
    <rect class="cls-6" x="119.8" y="61.5" width="2" height="1.7"/>
    <rect class="cls-6" x="122.7" y="61.5" width="2" height="1.7"/>
    <rect class="cls-6" x="150.3" y="45" width="2" height="6.4"/>
    <rect class="cls-6" x="153.2" y="45" width="2" height="6.4"/>
    <rect class="cls-6" x="149.3" y="52" width="2" height="1.7"/>
    <rect class="cls-6" x="152.3" y="52" width="2" height="1.7"/>
    <rect class="cls-6" x="150.3" y="54.5" width="2" height="6.4"/>
    <rect class="cls-6" x="153.2" y="54.5" width="2" height="6.4"/>
    <rect class="cls-6" x="149.3" y="61.5" width="2" height="1.7"/>
    <rect class="cls-6" x="152.3" y="61.5" width="2" height="1.7"/>
    <rect class="cls-6" x="179.8" y="45" width="2" height="6.4"/>
    <rect class="cls-6" x="182.8" y="45" width="2" height="6.4"/>
    <rect class="cls-6" x="178.8" y="52" width="2" height="1.7"/>
    <rect class="cls-6" x="181.8" y="52" width="2" height="1.7"/>
    <rect class="cls-6" x="179.8" y="54.5" width="2" height="6.4"/>
    <rect class="cls-6" x="182.8" y="54.5" width="2" height="6.4"/>
    <rect class="cls-6" x="178.8" y="61.5" width="2" height="1.7"/>
    <rect class="cls-6" x="181.8" y="61.5" width="2" height="1.7"/>
    <rect class="cls-6" x="209.4" y="45" width="2" height="6.4"/>
    <rect class="cls-6" x="212.3" y="45" width="2" height="6.4"/>
    <rect class="cls-6" x="208.4" y="52" width="2" height="1.7"/>
    <rect class="cls-6" x="211.3" y="52" width="2" height="1.7"/>
    <rect class="cls-6" x="209.4" y="54.5" width="2" height="6.4"/>
    <rect class="cls-6" x="212.3" y="54.5" width="2" height="6.4"/>
    <rect class="cls-6" x="208.4" y="61.5" width="2" height="1.7"/>
    <rect class="cls-6" x="211.3" y="61.5" width="2" height="1.7"/>
    <rect class="cls-6" x="238.9" y="45" width="2" height="6.4"/>
    <rect class="cls-6" x="241.9" y="45" width="2" height="6.4"/>
    <rect class="cls-6" x="237.9" y="52" width="2" height="1.7"/>
    <rect class="cls-6" x="240.9" y="52" width="2" height="1.7"/>
    <rect class="cls-6" x="238.9" y="54.5" width="2" height="6.4"/>
    <rect class="cls-6" x="241.9" y="54.5" width="2" height="6.4"/>
    <rect class="cls-6" x="237.9" y="61.5" width="2" height="1.7"/>
    <rect class="cls-6" x="240.9" y="61.5" width="2" height="1.7"/>
    <g>
      <rect class="cls-5" x="32.1" y="64" width="2" height="6.4"/>
      <rect class="cls-5" x="35.1" y="64" width="2" height="6.4"/>
      <rect class="cls-5" x="31.2" y="71" width="2" height="1.7"/>
      <rect class="cls-5" x="34.1" y="71" width="2" height="1.7"/>
      <rect class="cls-5" x="32.1" y="73.5" width="2" height="6.4"/>
      <rect class="cls-5" x="35.1" y="73.5" width="2" height="6.4"/>
      <rect class="cls-5" x="31.2" y="80.5" width="2" height="1.7"/>
      <rect class="cls-5" x="34.1" y="80.5" width="2" height="1.7"/>
      <rect class="cls-5" x="61.7" y="64" width="2" height="6.4"/>
      <rect class="cls-5" x="64.6" y="64" width="2" height="6.4"/>
      <rect class="cls-5" x="60.7" y="71" width="2" height="1.7"/>
      <rect class="cls-5" x="63.6" y="71" width="2" height="1.7"/>
      <rect class="cls-5" x="61.7" y="73.5" width="2" height="6.4"/>
      <rect class="cls-5" x="64.6" y="73.5" width="2" height="6.4"/>
      <rect class="cls-5" x="60.7" y="80.5" width="2" height="1.7"/>
      <rect class="cls-5" x="63.6" y="80.5" width="2" height="1.7"/>
      <rect class="cls-5" x="91.2" y="64" width="2" height="6.4"/>
      <rect class="cls-5" x="94.2" y="64" width="2" height="6.4"/>
      <rect class="cls-5" x="90.2" y="71" width="2" height="1.7"/>
      <rect class="cls-5" x="93.2" y="71" width="2" height="1.7"/>
      <rect class="cls-5" x="91.2" y="73.5" width="2" height="6.4"/>
      <rect class="cls-5" x="94.2" y="73.5" width="2" height="6.4"/>
      <rect class="cls-5" x="90.2" y="80.5" width="2" height="1.7"/>
      <rect class="cls-5" x="93.2" y="80.5" width="2" height="1.7"/>
      <rect class="cls-5" x="120.8" y="64" width="2" height="6.4"/>
      <rect class="cls-5" x="123.7" y="64" width="2" height="6.4"/>
      <rect class="cls-5" x="119.8" y="71" width="2" height="1.7"/>
      <rect class="cls-5" x="122.7" y="71" width="2" height="1.7"/>
      <rect class="cls-5" x="120.8" y="73.5" width="2" height="6.4"/>
      <rect class="cls-5" x="123.7" y="73.5" width="2" height="6.4"/>
      <rect class="cls-5" x="119.8" y="80.5" width="2" height="1.7"/>
      <rect class="cls-5" x="122.7" y="80.5" width="2" height="1.7"/>
      <rect class="cls-5" x="150.3" y="64" width="2" height="6.4"/>
      <rect class="cls-5" x="153.2" y="64" width="2" height="6.4"/>
      <rect class="cls-5" x="149.3" y="71" width="2" height="1.7"/>
      <rect class="cls-5" x="152.3" y="71" width="2" height="1.7"/>
      <rect class="cls-5" x="150.3" y="73.5" width="2" height="6.4"/>
      <rect class="cls-5" x="153.2" y="73.5" width="2" height="6.4"/>
      <rect class="cls-5" x="149.3" y="80.5" width="2" height="1.7"/>
      <rect class="cls-5" x="152.3" y="80.5" width="2" height="1.7"/>
      <rect class="cls-5" x="179.8" y="64" width="2" height="6.4"/>
      <rect class="cls-5" x="182.8" y="64" width="2" height="6.4"/>
      <rect class="cls-5" x="178.8" y="71" width="2" height="1.7"/>
      <rect class="cls-5" x="181.8" y="71" width="2" height="1.7"/>
      <rect class="cls-5" x="179.8" y="73.5" width="2" height="6.4"/>
      <rect class="cls-5" x="182.8" y="73.5" width="2" height="6.4"/>
      <rect class="cls-5" x="178.8" y="80.5" width="2" height="1.7"/>
      <rect class="cls-5" x="181.8" y="80.5" width="2" height="1.7"/>
      <rect class="cls-5" x="209.4" y="64" width="2" height="6.4"/>
      <rect class="cls-5" x="212.3" y="64" width="2" height="6.4"/>
      <rect class="cls-5" x="208.4" y="71" width="2" height="1.7"/>
      <rect class="cls-5" x="211.3" y="71" width="2" height="1.7"/>
      <rect class="cls-5" x="209.4" y="73.5" width="2" height="6.4"/>
      <rect class="cls-5" x="212.3" y="73.5" width="2" height="6.4"/>
      <rect class="cls-5" x="208.4" y="80.5" width="2" height="1.7"/>
      <rect class="cls-5" x="211.3" y="80.5" width="2" height="1.7"/>
      <rect class="cls-5" x="238.9" y="64" width="2" height="6.4"/>
      <rect class="cls-5" x="241.9" y="64" width="2" height="6.4"/>
      <rect class="cls-5" x="237.9" y="71" width="2" height="1.7"/>
      <rect class="cls-5" x="240.9" y="71" width="2" height="1.7"/>
      <rect class="cls-5" x="238.9" y="73.5" width="2" height="6.4"/>
      <rect class="cls-5" x="241.9" y="73.5" width="2" height="6.4"/>
      <rect class="cls-5" x="237.9" y="80.5" width="2" height="1.7"/>
      <rect class="cls-5" x="240.9" y="80.5" width="2" height="1.7"/>
      <rect class="cls-5" x="32.1" y="83" width="2" height="6.4"/>
      <rect class="cls-5" x="35.1" y="83" width="2" height="6.4"/>
      <rect class="cls-5" x="31.2" y="90" width="2" height="1.7"/>
      <rect class="cls-5" x="34.1" y="90" width="2" height="1.7"/>
      <rect class="cls-5" x="32.1" y="92.5" width="2" height="6.4"/>
      <rect class="cls-5" x="35.1" y="92.5" width="2" height="6.4"/>
      <rect class="cls-5" x="31.2" y="99.5" width="2" height="1.7"/>
      <rect class="cls-5" x="34.1" y="99.5" width="2" height="1.7"/>
      <rect class="cls-5" x="61.7" y="83" width="2" height="6.4"/>
      <rect class="cls-5" x="64.6" y="83" width="2" height="6.4"/>
      <rect class="cls-5" x="60.7" y="90" width="2" height="1.7"/>
      <rect class="cls-5" x="63.6" y="90" width="2" height="1.7"/>
      <rect class="cls-5" x="61.7" y="92.5" width="2" height="6.4"/>
      <rect class="cls-5" x="64.6" y="92.5" width="2" height="6.4"/>
      <rect class="cls-5" x="60.7" y="99.5" width="2" height="1.7"/>
      <rect class="cls-5" x="63.6" y="99.5" width="2" height="1.7"/>
      <rect class="cls-5" x="91.2" y="83" width="2" height="6.4"/>
      <rect class="cls-5" x="94.2" y="83" width="2" height="6.4"/>
      <rect class="cls-5" x="90.2" y="90" width="2" height="1.7"/>
      <rect class="cls-5" x="93.2" y="90" width="2" height="1.7"/>
      <rect class="cls-5" x="91.2" y="92.5" width="2" height="6.4"/>
      <rect class="cls-5" x="94.2" y="92.5" width="2" height="6.4"/>
      <rect class="cls-5" x="90.2" y="99.5" width="2" height="1.7"/>
      <rect class="cls-5" x="93.2" y="99.5" width="2" height="1.7"/>
      <rect class="cls-5" x="120.8" y="83" width="2" height="6.4"/>
      <rect class="cls-5" x="123.7" y="83" width="2" height="6.4"/>
      <rect class="cls-5" x="119.8" y="90" width="2" height="1.7"/>
      <rect class="cls-5" x="122.7" y="90" width="2" height="1.7"/>
      <rect class="cls-5" x="120.8" y="92.5" width="2" height="6.4"/>
      <rect class="cls-5" x="123.7" y="92.5" width="2" height="6.4"/>
      <rect class="cls-5" x="119.8" y="99.5" width="2" height="1.7"/>
      <rect class="cls-5" x="122.7" y="99.5" width="2" height="1.7"/>
      <rect class="cls-5" x="150.3" y="83" width="2" height="6.4"/>
      <rect class="cls-5" x="153.2" y="83" width="2" height="6.4"/>
      <rect class="cls-5" x="149.3" y="90" width="2" height="1.7"/>
      <rect class="cls-5" x="152.3" y="90" width="2" height="1.7"/>
      <rect class="cls-5" x="150.3" y="92.5" width="2" height="6.4"/>
      <rect class="cls-5" x="153.2" y="92.5" width="2" height="6.4"/>
      <rect class="cls-5" x="149.3" y="99.5" width="2" height="1.7"/>
      <rect class="cls-5" x="152.3" y="99.5" width="2" height="1.7"/>
      <rect class="cls-5" x="179.8" y="83" width="2" height="6.4"/>
      <rect class="cls-5" x="182.8" y="83" width="2" height="6.4"/>
      <rect class="cls-5" x="178.8" y="90" width="2" height="1.7"/>
      <rect class="cls-5" x="181.8" y="90" width="2" height="1.7"/>
      <rect class="cls-5" x="179.8" y="92.5" width="2" height="6.4"/>
      <rect class="cls-5" x="182.8" y="92.5" width="2" height="6.4"/>
      <rect class="cls-5" x="178.8" y="99.5" width="2" height="1.7"/>
      <rect class="cls-5" x="181.8" y="99.5" width="2" height="1.7"/>
      <rect class="cls-5" x="209.4" y="83" width="2" height="6.4"/>
      <rect class="cls-5" x="212.3" y="83" width="2" height="6.4"/>
      <rect class="cls-5" x="208.4" y="90" width="2" height="1.7"/>
      <rect class="cls-5" x="211.3" y="90" width="2" height="1.7"/>
      <rect class="cls-5" x="209.4" y="92.5" width="2" height="6.4"/>
      <rect class="cls-5" x="212.3" y="92.5" width="2" height="6.4"/>
      <rect class="cls-5" x="208.4" y="99.5" width="2" height="1.7"/>
      <rect class="cls-5" x="211.3" y="99.5" width="2" height="1.7"/>
      <rect class="cls-5" x="238.9" y="83" width="2" height="6.4"/>
      <rect class="cls-5" x="241.9" y="83" width="2" height="6.4"/>
      <rect class="cls-5" x="237.9" y="90" width="2" height="1.7"/>
      <rect class="cls-5" x="240.9" y="90" width="2" height="1.7"/>
      <rect class="cls-5" x="238.9" y="92.5" width="2" height="6.4"/>
      <rect class="cls-5" x="241.9" y="92.5" width="2" height="6.4"/>
      <rect class="cls-5" x="237.9" y="99.5" width="2" height="1.7"/>
      <rect class="cls-5" x="240.9" y="99.5" width="2" height="1.7"/>
      <rect class="cls-5" x="32.1" y="102" width="2" height="6.4"/>
      <rect class="cls-5" x="35.1" y="102" width="2" height="6.4"/>
      <rect class="cls-5" x="31.2" y="109" width="2" height="1.7"/>
      <rect class="cls-5" x="34.1" y="109" width="2" height="1.7"/>
      <rect class="cls-5" x="32.1" y="111.5" width="2" height="6.4"/>
      <rect class="cls-5" x="35.1" y="111.5" width="2" height="6.4"/>
      <rect class="cls-5" x="31.2" y="118.5" width="2" height="1.7"/>
      <rect class="cls-5" x="34.1" y="118.5" width="2" height="1.7"/>
      <rect class="cls-5" x="61.7" y="102" width="2" height="6.4"/>
      <rect class="cls-5" x="64.6" y="102" width="2" height="6.4"/>
      <rect class="cls-5" x="60.7" y="109" width="2" height="1.7"/>
      <rect class="cls-5" x="63.6" y="109" width="2" height="1.7"/>
      <rect class="cls-5" x="61.7" y="111.5" width="2" height="6.4"/>
      <rect class="cls-5" x="64.6" y="111.5" width="2" height="6.4"/>
      <rect class="cls-5" x="60.7" y="118.5" width="2" height="1.7"/>
      <rect class="cls-5" x="63.6" y="118.5" width="2" height="1.7"/>
      <rect class="cls-5" x="91.2" y="102" width="2" height="6.4"/>
      <rect class="cls-5" x="94.2" y="102" width="2" height="6.4"/>
      <rect class="cls-5" x="90.2" y="109" width="2" height="1.7"/>
      <rect class="cls-5" x="93.2" y="109" width="2" height="1.7"/>
      <rect class="cls-5" x="91.2" y="111.5" width="2" height="6.4"/>
      <rect class="cls-5" x="94.2" y="111.5" width="2" height="6.4"/>
      <rect class="cls-5" x="90.2" y="118.5" width="2" height="1.7"/>
      <rect class="cls-5" x="93.2" y="118.5" width="2" height="1.7"/>
      <rect class="cls-5" x="120.8" y="102" width="2" height="6.4"/>
      <rect class="cls-5" x="123.7" y="102" width="2" height="6.4"/>
      <rect class="cls-5" x="119.8" y="109" width="2" height="1.7"/>
      <rect class="cls-5" x="122.7" y="109" width="2" height="1.7"/>
      <rect class="cls-5" x="120.8" y="111.5" width="2" height="6.4"/>
      <rect class="cls-5" x="123.7" y="111.5" width="2" height="6.4"/>
      <rect class="cls-5" x="119.8" y="118.5" width="2" height="1.7"/>
      <rect class="cls-5" x="122.7" y="118.5" width="2" height="1.7"/>
      <rect class="cls-5" x="150.3" y="102" width="2" height="6.4"/>
      <rect class="cls-5" x="153.2" y="102" width="2" height="6.4"/>
      <rect class="cls-5" x="149.3" y="109" width="2" height="1.7"/>
      <rect class="cls-5" x="152.3" y="109" width="2" height="1.7"/>
      <rect class="cls-5" x="150.3" y="111.5" width="2" height="6.4"/>
      <rect class="cls-5" x="153.2" y="111.5" width="2" height="6.4"/>
      <rect class="cls-5" x="149.3" y="118.5" width="2" height="1.7"/>
      <rect class="cls-5" x="152.3" y="118.5" width="2" height="1.7"/>
      <rect class="cls-5" x="179.8" y="102" width="2" height="6.4"/>
      <rect class="cls-5" x="182.8" y="102" width="2" height="6.4"/>
      <rect class="cls-5" x="178.8" y="109" width="2" height="1.7"/>
      <rect class="cls-5" x="181.8" y="109" width="2" height="1.7"/>
      <rect class="cls-5" x="179.8" y="111.5" width="2" height="6.4"/>
      <rect class="cls-5" x="182.8" y="111.5" width="2" height="6.4"/>
      <rect class="cls-5" x="178.8" y="118.5" width="2" height="1.7"/>
      <rect class="cls-5" x="181.8" y="118.5" width="2" height="1.7"/>
      <rect class="cls-5" x="209.4" y="102" width="2" height="6.4"/>
      <rect class="cls-5" x="212.3" y="102" width="2" height="6.4"/>
      <rect class="cls-5" x="208.4" y="109" width="2" height="1.7"/>
      <rect class="cls-5" x="211.3" y="109" width="2" height="1.7"/>
      <rect class="cls-5" x="209.4" y="111.5" width="2" height="6.4"/>
      <rect class="cls-5" x="212.3" y="111.5" width="2" height="6.4"/>
      <rect class="cls-5" x="208.4" y="118.5" width="2" height="1.7"/>
      <rect class="cls-5" x="211.3" y="118.5" width="2" height="1.7"/>
      <rect class="cls-5" x="238.9" y="102" width="2" height="6.4"/>
      <rect class="cls-5" x="241.9" y="102" width="2" height="6.4"/>
      <rect class="cls-5" x="237.9" y="109" width="2" height="1.7"/>
      <rect class="cls-5" x="240.9" y="109" width="2" height="1.7"/>
      <rect class="cls-5" x="238.9" y="111.5" width="2" height="6.4"/>
      <rect class="cls-5" x="241.9" y="111.5" width="2" height="6.4"/>
      <rect class="cls-5" x="237.9" y="118.5" width="2" height="1.7"/>
      <rect class="cls-5" x="240.9" y="118.5" width="2" height="1.7"/>
      <rect class="cls-5" x="32.1" y="121" width="2" height="6.4"/>
      <rect class="cls-5" x="35.1" y="121" width="2" height="6.4"/>
      <rect class="cls-5" x="31.2" y="128" width="2" height="1.7"/>
      <rect class="cls-5" x="34.1" y="128" width="2" height="1.7"/>
      <rect class="cls-5" x="32.1" y="130.5" width="2" height="6.4"/>
      <rect class="cls-5" x="35.1" y="130.5" width="2" height="6.4"/>
      <rect class="cls-5" x="31.2" y="137.5" width="2" height="1.7"/>
      <rect class="cls-5" x="34.1" y="137.5" width="2" height="1.7"/>
      <rect class="cls-5" x="61.7" y="121" width="2" height="6.4"/>
      <rect class="cls-5" x="64.6" y="121" width="2" height="6.4"/>
      <rect class="cls-5" x="60.7" y="128" width="2" height="1.7"/>
      <rect class="cls-5" x="63.6" y="128" width="2" height="1.7"/>
      <rect class="cls-5" x="61.7" y="130.5" width="2" height="6.4"/>
      <rect class="cls-5" x="64.6" y="130.5" width="2" height="6.4"/>
      <rect class="cls-5" x="60.7" y="137.5" width="2" height="1.7"/>
      <rect class="cls-5" x="63.6" y="137.5" width="2" height="1.7"/>
      <rect class="cls-5" x="91.2" y="121" width="2" height="6.4"/>
      <rect class="cls-5" x="94.2" y="121" width="2" height="6.4"/>
      <rect class="cls-5" x="90.2" y="128" width="2" height="1.7"/>
      <rect class="cls-5" x="93.2" y="128" width="2" height="1.7"/>
      <rect class="cls-5" x="91.2" y="130.5" width="2" height="6.4"/>
      <rect class="cls-5" x="94.2" y="130.5" width="2" height="6.4"/>
      <rect class="cls-5" x="90.2" y="137.5" width="2" height="1.7"/>
      <rect class="cls-5" x="93.2" y="137.5" width="2" height="1.7"/>
      <rect class="cls-5" x="120.8" y="121" width="2" height="6.4"/>
      <rect class="cls-5" x="123.7" y="121" width="2" height="6.4"/>
      <rect class="cls-5" x="119.8" y="128" width="2" height="1.7"/>
      <rect class="cls-5" x="122.7" y="128" width="2" height="1.7"/>
      <rect class="cls-5" x="120.8" y="130.5" width="2" height="6.4"/>
      <rect class="cls-5" x="123.7" y="130.5" width="2" height="6.4"/>
      <rect class="cls-5" x="119.8" y="137.5" width="2" height="1.7"/>
      <rect class="cls-5" x="122.7" y="137.5" width="2" height="1.7"/>
      <rect class="cls-5" x="150.3" y="121" width="2" height="6.4"/>
      <rect class="cls-5" x="153.2" y="121" width="2" height="6.4"/>
      <rect class="cls-5" x="149.3" y="128" width="2" height="1.7"/>
      <rect class="cls-5" x="152.3" y="128" width="2" height="1.7"/>
      <rect class="cls-5" x="150.3" y="130.5" width="2" height="6.4"/>
      <rect class="cls-5" x="153.2" y="130.5" width="2" height="6.4"/>
      <rect class="cls-5" x="149.3" y="137.5" width="2" height="1.7"/>
      <rect class="cls-5" x="152.3" y="137.5" width="2" height="1.7"/>
      <rect class="cls-5" x="179.8" y="121" width="2" height="6.4"/>
      <rect class="cls-5" x="182.8" y="121" width="2" height="6.4"/>
      <rect class="cls-5" x="178.8" y="128" width="2" height="1.7"/>
      <rect class="cls-5" x="181.8" y="128" width="2" height="1.7"/>
      <rect class="cls-5" x="179.8" y="130.5" width="2" height="6.4"/>
      <rect class="cls-5" x="182.8" y="130.5" width="2" height="6.4"/>
      <rect class="cls-5" x="178.8" y="137.5" width="2" height="1.7"/>
      <rect class="cls-5" x="181.8" y="137.5" width="2" height="1.7"/>
      <rect class="cls-5" x="209.4" y="121" width="2" height="6.4"/>
      <rect class="cls-5" x="212.3" y="121" width="2" height="6.4"/>
      <rect class="cls-5" x="208.4" y="128" width="2" height="1.7"/>
      <rect class="cls-5" x="211.3" y="128" width="2" height="1.7"/>
      <rect class="cls-5" x="209.4" y="130.5" width="2" height="6.4"/>
      <rect class="cls-5" x="212.3" y="130.5" width="2" height="6.4"/>
      <rect class="cls-5" x="208.4" y="137.5" width="2" height="1.7"/>
      <rect class="cls-5" x="211.3" y="137.5" width="2" height="1.7"/>
      <rect class="cls-5" x="238.9" y="121" width="2" height="6.4"/>
      <rect class="cls-5" x="241.9" y="121" width="2" height="6.4"/>
      <rect class="cls-5" x="237.9" y="128" width="2" height="1.7"/>
      <rect class="cls-5" x="240.9" y="128" width="2" height="1.7"/>
      <rect class="cls-5" x="238.9" y="130.5" width="2" height="6.4"/>
      <rect class="cls-5" x="241.9" y="130.5" width="2" height="6.4"/>
      <rect class="cls-5" x="237.9" y="137.5" width="2" height="1.7"/>
      <rect class="cls-5" x="240.9" y="137.5" width="2" height="1.7"/>
      <rect class="cls-5" x="32.1" y="140" width="2" height="6.4"/>
      <rect class="cls-5" x="35.1" y="140" width="2" height="6.4"/>
      <rect class="cls-5" x="31.2" y="147" width="2" height="1.7"/>
      <rect class="cls-5" x="34.1" y="147" width="2" height="1.7"/>
      <rect class="cls-5" x="32.1" y="149.5" width="2" height="6.4"/>
      <rect class="cls-5" x="35.1" y="149.5" width="2" height="6.4"/>
      <rect class="cls-5" x="31.2" y="156.5" width="2" height="1.7"/>
      <rect class="cls-5" x="34.1" y="156.5" width="2" height="1.7"/>
      <rect class="cls-5" x="61.7" y="140" width="2" height="6.4"/>
      <rect class="cls-5" x="64.6" y="140" width="2" height="6.4"/>
      <rect class="cls-5" x="60.7" y="147" width="2" height="1.7"/>
      <rect class="cls-5" x="63.6" y="147" width="2" height="1.7"/>
      <rect class="cls-5" x="61.7" y="149.5" width="2" height="6.4"/>
      <rect class="cls-5" x="64.6" y="149.5" width="2" height="6.4"/>
      <rect class="cls-5" x="60.7" y="156.5" width="2" height="1.7"/>
      <rect class="cls-5" x="63.6" y="156.5" width="2" height="1.7"/>
      <rect class="cls-5" x="91.2" y="140" width="2" height="6.4"/>
      <rect class="cls-5" x="94.2" y="140" width="2" height="6.4"/>
      <rect class="cls-5" x="90.2" y="147" width="2" height="1.7"/>
      <rect class="cls-5" x="93.2" y="147" width="2" height="1.7"/>
      <rect class="cls-5" x="91.2" y="149.5" width="2" height="6.4"/>
      <rect class="cls-5" x="94.2" y="149.5" width="2" height="6.4"/>
      <rect class="cls-5" x="90.2" y="156.5" width="2" height="1.7"/>
      <rect class="cls-5" x="93.2" y="156.5" width="2" height="1.7"/>
      <rect class="cls-5" x="120.8" y="140" width="2" height="6.4"/>
      <rect class="cls-5" x="123.7" y="140" width="2" height="6.4"/>
      <rect class="cls-5" x="119.8" y="147" width="2" height="1.7"/>
      <rect class="cls-5" x="122.7" y="147" width="2" height="1.7"/>
      <rect class="cls-5" x="120.8" y="149.5" width="2" height="6.4"/>
      <rect class="cls-5" x="123.7" y="149.5" width="2" height="6.4"/>
      <rect class="cls-5" x="119.8" y="156.5" width="2" height="1.7"/>
      <rect class="cls-5" x="122.7" y="156.5" width="2" height="1.7"/>
      <rect class="cls-5" x="150.3" y="140" width="2" height="6.4"/>
      <rect class="cls-5" x="153.2" y="140" width="2" height="6.4"/>
      <rect class="cls-5" x="149.3" y="147" width="2" height="1.7"/>
      <rect class="cls-5" x="152.3" y="147" width="2" height="1.7"/>
      <rect class="cls-5" x="150.3" y="149.5" width="2" height="6.4"/>
      <rect class="cls-5" x="153.2" y="149.5" width="2" height="6.4"/>
      <rect class="cls-5" x="149.3" y="156.5" width="2" height="1.7"/>
      <rect class="cls-5" x="152.3" y="156.5" width="2" height="1.7"/>
      <rect class="cls-5" x="179.8" y="140" width="2" height="6.4"/>
      <rect class="cls-5" x="182.8" y="140" width="2" height="6.4"/>
      <rect class="cls-5" x="178.8" y="147" width="2" height="1.7"/>
      <rect class="cls-5" x="181.8" y="147" width="2" height="1.7"/>
      <rect class="cls-5" x="179.8" y="149.5" width="2" height="6.4"/>
      <rect class="cls-5" x="182.8" y="149.5" width="2" height="6.4"/>
      <rect class="cls-5" x="178.8" y="156.5" width="2" height="1.7"/>
      <rect class="cls-5" x="181.8" y="156.5" width="2" height="1.7"/>
      <rect class="cls-5" x="209.4" y="140" width="2" height="6.4"/>
      <rect class="cls-5" x="212.3" y="140" width="2" height="6.4"/>
      <rect class="cls-5" x="208.4" y="147" width="2" height="1.7"/>
      <rect class="cls-5" x="211.3" y="147" width="2" height="1.7"/>
      <rect class="cls-5" x="209.4" y="149.5" width="2" height="6.4"/>
      <rect class="cls-5" x="212.3" y="149.5" width="2" height="6.4"/>
      <rect class="cls-5" x="208.4" y="156.5" width="2" height="1.7"/>
      <rect class="cls-5" x="211.3" y="156.5" width="2" height="1.7"/>
      <rect class="cls-5" x="238.9" y="140" width="2" height="6.4"/>
      <rect class="cls-5" x="241.9" y="140" width="2" height="6.4"/>
      <rect class="cls-5" x="237.9" y="147" width="2" height="1.7"/>
      <rect class="cls-5" x="240.9" y="147" width="2" height="1.7"/>
      <rect class="cls-5" x="238.9" y="149.5" width="2" height="6.4"/>
      <rect class="cls-5" x="241.9" y="149.5" width="2" height="6.4"/>
      <rect class="cls-5" x="237.9" y="156.5" width="2" height="1.7"/>
      <rect class="cls-5" x="240.9" y="156.5" width="2" height="1.7"/>
      <rect class="cls-5" x="32.1" y="159" width="2" height="6.4"/>
      <rect class="cls-5" x="35.1" y="159" width="2" height="6.4"/>
      <rect class="cls-5" x="31.2" y="166" width="2" height="1.7"/>
      <rect class="cls-5" x="34.1" y="166" width="2" height="1.7"/>
      <rect class="cls-5" x="32.1" y="168.5" width="2" height="6.4"/>
      <rect class="cls-5" x="35.1" y="168.5" width="2" height="6.4"/>
      <rect class="cls-5" x="31.2" y="175.5" width="2" height="1.7"/>
      <rect class="cls-5" x="34.1" y="175.5" width="2" height="1.7"/>
      <rect class="cls-5" x="61.7" y="159" width="2" height="6.4"/>
      <rect class="cls-5" x="64.6" y="159" width="2" height="6.4"/>
      <rect class="cls-5" x="60.7" y="166" width="2" height="1.7"/>
      <rect class="cls-5" x="63.6" y="166" width="2" height="1.7"/>
      <rect class="cls-5" x="61.7" y="168.5" width="2" height="6.4"/>
      <rect class="cls-5" x="64.6" y="168.5" width="2" height="6.4"/>
      <rect class="cls-5" x="60.7" y="175.5" width="2" height="1.7"/>
      <rect class="cls-5" x="63.6" y="175.5" width="2" height="1.7"/>
      <rect class="cls-5" x="91.2" y="159" width="2" height="6.4"/>
      <rect class="cls-5" x="94.2" y="159" width="2" height="6.4"/>
      <rect class="cls-5" x="90.2" y="166" width="2" height="1.7"/>
      <rect class="cls-5" x="93.2" y="166" width="2" height="1.7"/>
      <rect class="cls-5" x="91.2" y="168.5" width="2" height="6.4"/>
      <rect class="cls-5" x="94.2" y="168.5" width="2" height="6.4"/>
      <rect class="cls-5" x="90.2" y="175.5" width="2" height="1.7"/>
      <rect class="cls-5" x="93.2" y="175.5" width="2" height="1.7"/>
      <rect class="cls-5" x="120.8" y="159" width="2" height="6.4"/>
      <rect class="cls-5" x="123.7" y="159" width="2" height="6.4"/>
      <rect class="cls-5" x="119.8" y="166" width="2" height="1.7"/>
      <rect class="cls-5" x="122.7" y="166" width="2" height="1.7"/>
      <rect class="cls-5" x="120.8" y="168.5" width="2" height="6.4"/>
      <rect class="cls-5" x="123.7" y="168.5" width="2" height="6.4"/>
      <rect class="cls-5" x="119.8" y="175.5" width="2" height="1.7"/>
      <rect class="cls-5" x="122.7" y="175.5" width="2" height="1.7"/>
      <rect class="cls-5" x="150.3" y="159" width="2" height="6.4"/>
      <rect class="cls-5" x="153.2" y="159" width="2" height="6.4"/>
      <rect class="cls-5" x="149.3" y="166" width="2" height="1.7"/>
      <rect class="cls-5" x="152.3" y="166" width="2" height="1.7"/>
      <rect class="cls-5" x="150.3" y="168.5" width="2" height="6.4"/>
      <rect class="cls-5" x="153.2" y="168.5" width="2" height="6.4"/>
      <rect class="cls-5" x="149.3" y="175.5" width="2" height="1.7"/>
      <rect class="cls-5" x="152.3" y="175.5" width="2" height="1.7"/>
      <rect class="cls-5" x="179.8" y="159" width="2" height="6.4"/>
      <rect class="cls-5" x="182.8" y="159" width="2" height="6.4"/>
      <rect class="cls-5" x="178.8" y="166" width="2" height="1.7"/>
      <rect class="cls-5" x="181.8" y="166" width="2" height="1.7"/>
      <rect class="cls-5" x="179.8" y="168.5" width="2" height="6.4"/>
      <rect class="cls-5" x="182.8" y="168.5" width="2" height="6.4"/>
      <rect class="cls-5" x="178.8" y="175.5" width="2" height="1.7"/>
      <rect class="cls-5" x="181.8" y="175.5" width="2" height="1.7"/>
      <rect class="cls-5" x="209.4" y="159" width="2" height="6.4"/>
      <rect class="cls-5" x="212.3" y="159" width="2" height="6.4"/>
      <rect class="cls-5" x="208.4" y="166" width="2" height="1.7"/>
      <rect class="cls-5" x="211.3" y="166" width="2" height="1.7"/>
      <rect class="cls-5" x="209.4" y="168.5" width="2" height="6.4"/>
      <rect class="cls-5" x="212.3" y="168.5" width="2" height="6.4"/>
      <rect class="cls-5" x="208.4" y="175.5" width="2" height="1.7"/>
      <rect class="cls-5" x="211.3" y="175.5" width="2" height="1.7"/>
      <rect class="cls-5" x="238.9" y="159" width="2" height="6.4"/>
      <rect class="cls-5" x="241.9" y="159" width="2" height="6.4"/>
      <rect class="cls-5" x="237.9" y="166" width="2" height="1.7"/>
      <rect class="cls-5" x="240.9" y="166" width="2" height="1.7"/>
      <rect class="cls-5" x="238.9" y="168.5" width="2" height="6.4"/>
      <rect class="cls-5" x="241.9" y="168.5" width="2" height="6.4"/>
      <rect class="cls-5" x="237.9" y="175.5" width="2" height="1.7"/>
      <rect class="cls-5" x="240.9" y="175.5" width="2" height="1.7"/>
      <rect class="cls-5" x="32.1" y="178" width="2" height="6.4"/>
      <rect class="cls-5" x="35.1" y="178" width="2" height="6.4"/>
      <rect class="cls-5" x="31.2" y="185" width="2" height="1.7"/>
      <rect class="cls-5" x="34.1" y="185" width="2" height="1.7"/>
      <rect class="cls-5" x="32.1" y="187.5" width="2" height="6.4"/>
      <rect class="cls-5" x="35.1" y="187.5" width="2" height="6.4"/>
      <rect class="cls-5" x="31.2" y="194.5" width="2" height="1.7"/>
      <rect class="cls-5" x="34.1" y="194.5" width="2" height="1.7"/>
      <rect class="cls-5" x="61.7" y="178" width="2" height="6.4"/>
      <rect class="cls-5" x="64.6" y="178" width="2" height="6.4"/>
      <rect class="cls-5" x="60.7" y="185" width="2" height="1.7"/>
      <rect class="cls-5" x="63.6" y="185" width="2" height="1.7"/>
      <rect class="cls-5" x="61.7" y="187.5" width="2" height="6.4"/>
      <rect class="cls-5" x="64.6" y="187.5" width="2" height="6.4"/>
      <rect class="cls-5" x="60.7" y="194.5" width="2" height="1.7"/>
      <rect class="cls-5" x="63.6" y="194.5" width="2" height="1.7"/>
      <rect class="cls-5" x="91.2" y="178" width="2" height="6.4"/>
      <rect class="cls-5" x="94.2" y="178" width="2" height="6.4"/>
      <rect class="cls-5" x="90.2" y="185" width="2" height="1.7"/>
      <rect class="cls-5" x="93.2" y="185" width="2" height="1.7"/>
      <rect class="cls-5" x="91.2" y="187.5" width="2" height="6.4"/>
      <rect class="cls-5" x="94.2" y="187.5" width="2" height="6.4"/>
      <rect class="cls-5" x="90.2" y="194.5" width="2" height="1.7"/>
      <rect class="cls-5" x="93.2" y="194.5" width="2" height="1.7"/>
      <rect class="cls-5" x="120.8" y="178" width="2" height="6.4"/>
      <rect class="cls-5" x="123.7" y="178" width="2" height="6.4"/>
      <rect class="cls-5" x="119.8" y="185" width="2" height="1.7"/>
      <rect class="cls-5" x="122.7" y="185" width="2" height="1.7"/>
      <rect class="cls-5" x="120.8" y="187.5" width="2" height="6.4"/>
      <rect class="cls-5" x="123.7" y="187.5" width="2" height="6.4"/>
      <rect class="cls-5" x="119.8" y="194.5" width="2" height="1.7"/>
      <rect class="cls-5" x="122.7" y="194.5" width="2" height="1.7"/>
      <rect class="cls-5" x="150.3" y="178" width="2" height="6.4"/>
      <rect class="cls-5" x="153.2" y="178" width="2" height="6.4"/>
      <rect class="cls-5" x="149.3" y="185" width="2" height="1.7"/>
      <rect class="cls-5" x="152.3" y="185" width="2" height="1.7"/>
      <rect class="cls-5" x="150.3" y="187.5" width="2" height="6.4"/>
      <rect class="cls-5" x="153.2" y="187.5" width="2" height="6.4"/>
      <rect class="cls-5" x="149.3" y="194.5" width="2" height="1.7"/>
      <rect class="cls-5" x="152.3" y="194.5" width="2" height="1.7"/>
      <rect class="cls-5" x="179.8" y="178" width="2" height="6.4"/>
      <rect class="cls-5" x="182.8" y="178" width="2" height="6.4"/>
      <rect class="cls-5" x="178.8" y="185" width="2" height="1.7"/>
      <rect class="cls-5" x="181.8" y="185" width="2" height="1.7"/>
      <rect class="cls-5" x="179.8" y="187.5" width="2" height="6.4"/>
      <rect class="cls-5" x="182.8" y="187.5" width="2" height="6.4"/>
      <rect class="cls-5" x="178.8" y="194.5" width="2" height="1.7"/>
      <rect class="cls-5" x="181.8" y="194.5" width="2" height="1.7"/>
      <rect class="cls-5" x="209.4" y="178" width="2" height="6.4"/>
      <rect class="cls-5" x="212.3" y="178" width="2" height="6.4"/>
      <rect class="cls-5" x="208.4" y="185" width="2" height="1.7"/>
      <rect class="cls-5" x="211.3" y="185" width="2" height="1.7"/>
      <rect class="cls-5" x="209.4" y="187.5" width="2" height="6.4"/>
      <rect class="cls-5" x="212.3" y="187.5" width="2" height="6.4"/>
      <rect class="cls-5" x="208.4" y="194.5" width="2" height="1.7"/>
      <rect class="cls-5" x="211.3" y="194.5" width="2" height="1.7"/>
      <rect class="cls-5" x="238.9" y="178" width="2" height="6.4"/>
      <rect class="cls-5" x="241.9" y="178" width="2" height="6.4"/>
      <rect class="cls-5" x="237.9" y="185" width="2" height="1.7"/>
      <rect class="cls-5" x="240.9" y="185" width="2" height="1.7"/>
      <rect class="cls-5" x="238.9" y="187.5" width="2" height="6.4"/>
      <rect class="cls-5" x="241.9" y="187.5" width="2" height="6.4"/>
      <rect class="cls-5" x="237.9" y="194.5" width="2" height="1.7"/>
      <rect class="cls-5" x="240.9" y="194.5" width="2" height="1.7"/>
      <rect class="cls-5" x="32.1" y="197" width="2" height="6.4"/>
      <rect class="cls-5" x="35.1" y="197" width="2" height="6.4"/>
      <rect class="cls-5" x="31.2" y="204" width="2" height="1.7"/>
      <rect class="cls-5" x="34.1" y="204" width="2" height="1.7"/>
      <rect class="cls-5" x="32.1" y="206.5" width="2" height="6.4"/>
      <rect class="cls-5" x="35.1" y="206.5" width="2" height="6.4"/>
      <rect class="cls-5" x="31.2" y="213.5" width="2" height="1.7"/>
      <rect class="cls-5" x="34.1" y="213.5" width="2" height="1.7"/>
      <rect class="cls-5" x="61.7" y="197" width="2" height="6.4"/>
      <rect class="cls-5" x="64.6" y="197" width="2" height="6.4"/>
      <rect class="cls-5" x="60.7" y="204" width="2" height="1.7"/>
      <rect class="cls-5" x="63.6" y="204" width="2" height="1.7"/>
      <rect class="cls-5" x="61.7" y="206.5" width="2" height="6.4"/>
      <rect class="cls-5" x="64.6" y="206.5" width="2" height="6.4"/>
      <rect class="cls-5" x="60.7" y="213.5" width="2" height="1.7"/>
      <rect class="cls-5" x="63.6" y="213.5" width="2" height="1.7"/>
      <rect class="cls-5" x="91.2" y="197" width="2" height="6.4"/>
      <rect class="cls-5" x="94.2" y="197" width="2" height="6.4"/>
      <rect class="cls-5" x="90.2" y="204" width="2" height="1.7"/>
      <rect class="cls-5" x="93.2" y="204" width="2" height="1.7"/>
      <rect class="cls-5" x="91.2" y="206.5" width="2" height="6.4"/>
      <rect class="cls-5" x="94.2" y="206.5" width="2" height="6.4"/>
      <rect class="cls-5" x="90.2" y="213.5" width="2" height="1.7"/>
      <rect class="cls-5" x="93.2" y="213.5" width="2" height="1.7"/>
      <rect class="cls-5" x="120.8" y="197" width="2" height="6.4"/>
      <rect class="cls-5" x="123.7" y="197" width="2" height="6.4"/>
      <rect class="cls-5" x="119.8" y="204" width="2" height="1.7"/>
      <rect class="cls-5" x="122.7" y="204" width="2" height="1.7"/>
      <rect class="cls-5" x="120.8" y="206.5" width="2" height="6.4"/>
      <rect class="cls-5" x="123.7" y="206.5" width="2" height="6.4"/>
      <rect class="cls-5" x="119.8" y="213.5" width="2" height="1.7"/>
      <rect class="cls-5" x="122.7" y="213.5" width="2" height="1.7"/>
      <rect class="cls-5" x="150.3" y="197" width="2" height="6.4"/>
      <rect class="cls-5" x="153.2" y="197" width="2" height="6.4"/>
      <rect class="cls-5" x="149.3" y="204" width="2" height="1.7"/>
      <rect class="cls-5" x="152.3" y="204" width="2" height="1.7"/>
      <rect class="cls-5" x="150.3" y="206.5" width="2" height="6.4"/>
      <rect class="cls-5" x="153.2" y="206.5" width="2" height="6.4"/>
      <rect class="cls-5" x="149.3" y="213.5" width="2" height="1.7"/>
      <rect class="cls-5" x="152.3" y="213.5" width="2" height="1.7"/>
      <rect class="cls-5" x="179.8" y="197" width="2" height="6.4"/>
      <rect class="cls-5" x="182.8" y="197" width="2" height="6.4"/>
      <rect class="cls-5" x="178.8" y="204" width="2" height="1.7"/>
      <rect class="cls-5" x="181.8" y="204" width="2" height="1.7"/>
      <rect class="cls-5" x="179.8" y="206.5" width="2" height="6.4"/>
      <rect class="cls-5" x="182.8" y="206.5" width="2" height="6.4"/>
      <rect class="cls-5" x="178.8" y="213.5" width="2" height="1.7"/>
      <rect class="cls-5" x="181.8" y="213.5" width="2" height="1.7"/>
      <rect class="cls-5" x="209.4" y="197" width="2" height="6.4"/>
      <rect class="cls-5" x="212.3" y="197" width="2" height="6.4"/>
      <rect class="cls-5" x="208.4" y="204" width="2" height="1.7"/>
      <rect class="cls-5" x="211.3" y="204" width="2" height="1.7"/>
      <rect class="cls-5" x="209.4" y="206.5" width="2" height="6.4"/>
      <rect class="cls-5" x="212.3" y="206.5" width="2" height="6.4"/>
      <rect class="cls-5" x="208.4" y="213.5" width="2" height="1.7"/>
      <rect class="cls-5" x="211.3" y="213.5" width="2" height="1.7"/>
      <rect class="cls-5" x="238.9" y="197" width="2" height="6.4"/>
      <rect class="cls-5" x="241.9" y="197" width="2" height="6.4"/>
      <rect class="cls-5" x="237.9" y="204" width="2" height="1.7"/>
      <rect class="cls-5" x="240.9" y="204" width="2" height="1.7"/>
      <rect class="cls-5" x="238.9" y="206.5" width="2" height="6.4"/>
      <rect class="cls-5" x="241.9" y="206.5" width="2" height="6.4"/>
      <rect class="cls-5" x="237.9" y="213.5" width="2" height="1.7"/>
      <rect class="cls-5" x="240.9" y="213.5" width="2" height="1.7"/>
      <rect class="cls-5" x="32.1" y="216" width="2" height="6.4"/>
      <rect class="cls-5" x="35.1" y="216" width="2" height="6.4"/>
      <rect class="cls-5" x="31.2" y="223" width="2" height="1.7"/>
      <rect class="cls-5" x="34.1" y="223" width="2" height="1.7"/>
      <rect class="cls-5" x="32.1" y="225.5" width="2" height="6.4"/>
      <rect class="cls-5" x="35.1" y="225.5" width="2" height="6.4"/>
      <rect class="cls-5" x="31.2" y="232.5" width="2" height="1.7"/>
      <rect class="cls-5" x="34.1" y="232.5" width="2" height="1.7"/>
      <rect class="cls-5" x="61.7" y="216" width="2" height="6.4"/>
      <rect class="cls-5" x="64.6" y="216" width="2" height="6.4"/>
      <rect class="cls-5" x="60.7" y="223" width="2" height="1.7"/>
      <rect class="cls-5" x="63.6" y="223" width="2" height="1.7"/>
      <rect class="cls-5" x="61.7" y="225.5" width="2" height="6.4"/>
      <rect class="cls-5" x="64.6" y="225.5" width="2" height="6.4"/>
      <rect class="cls-5" x="60.7" y="232.5" width="2" height="1.7"/>
      <rect class="cls-5" x="63.6" y="232.5" width="2" height="1.7"/>
      <rect class="cls-5" x="91.2" y="216" width="2" height="6.4"/>
      <rect class="cls-5" x="94.2" y="216" width="2" height="6.4"/>
      <rect class="cls-5" x="90.2" y="223" width="2" height="1.7"/>
      <rect class="cls-5" x="93.2" y="223" width="2" height="1.7"/>
      <rect class="cls-5" x="91.2" y="225.5" width="2" height="6.4"/>
      <rect class="cls-5" x="94.2" y="225.5" width="2" height="6.4"/>
      <rect class="cls-5" x="90.2" y="232.5" width="2" height="1.7"/>
      <rect class="cls-5" x="93.2" y="232.5" width="2" height="1.7"/>
      <rect class="cls-5" x="120.8" y="216" width="2" height="6.4"/>
      <rect class="cls-5" x="123.7" y="216" width="2" height="6.4"/>
      <rect class="cls-5" x="119.8" y="223" width="2" height="1.7"/>
      <rect class="cls-5" x="122.7" y="223" width="2" height="1.7"/>
      <rect class="cls-5" x="120.8" y="225.5" width="2" height="6.4"/>
      <rect class="cls-5" x="123.7" y="225.5" width="2" height="6.4"/>
      <rect class="cls-5" x="119.8" y="232.5" width="2" height="1.7"/>
      <rect class="cls-5" x="122.7" y="232.5" width="2" height="1.7"/>
      <rect class="cls-5" x="150.3" y="216" width="2" height="6.4"/>
      <rect class="cls-5" x="153.2" y="216" width="2" height="6.4"/>
      <rect class="cls-5" x="149.3" y="223" width="2" height="1.7"/>
      <rect class="cls-5" x="152.3" y="223" width="2" height="1.7"/>
      <rect class="cls-5" x="150.3" y="225.5" width="2" height="6.4"/>
      <rect class="cls-5" x="153.2" y="225.5" width="2" height="6.4"/>
      <rect class="cls-5" x="149.3" y="232.5" width="2" height="1.7"/>
      <rect class="cls-5" x="152.3" y="232.5" width="2" height="1.7"/>
      <rect class="cls-5" x="179.8" y="216" width="2" height="6.4"/>
      <rect class="cls-5" x="182.8" y="216" width="2" height="6.4"/>
      <rect class="cls-5" x="178.8" y="223" width="2" height="1.7"/>
      <rect class="cls-5" x="181.8" y="223" width="2" height="1.7"/>
      <rect class="cls-5" x="179.8" y="225.5" width="2" height="6.4"/>
      <rect class="cls-5" x="182.8" y="225.5" width="2" height="6.4"/>
      <rect class="cls-5" x="178.8" y="232.5" width="2" height="1.7"/>
      <rect class="cls-5" x="181.8" y="232.5" width="2" height="1.7"/>
      <rect class="cls-5" x="209.4" y="216" width="2" height="6.4"/>
      <rect class="cls-5" x="212.3" y="216" width="2" height="6.4"/>
      <rect class="cls-5" x="208.4" y="223" width="2" height="1.7"/>
      <rect class="cls-5" x="211.3" y="223" width="2" height="1.7"/>
      <rect class="cls-5" x="209.4" y="225.5" width="2" height="6.4"/>
      <rect class="cls-5" x="212.3" y="225.5" width="2" height="6.4"/>
      <rect class="cls-5" x="208.4" y="232.5" width="2" height="1.7"/>
      <rect class="cls-5" x="211.3" y="232.5" width="2" height="1.7"/>
      <rect class="cls-5" x="238.9" y="216" width="2" height="6.4"/>
      <rect class="cls-5" x="241.9" y="216" width="2" height="6.4"/>
      <rect class="cls-5" x="237.9" y="223" width="2" height="1.7"/>
      <rect class="cls-5" x="240.9" y="223" width="2" height="1.7"/>
      <rect class="cls-5" x="238.9" y="225.5" width="2" height="6.4"/>
      <rect class="cls-5" x="241.9" y="225.5" width="2" height="6.4"/>
      <rect class="cls-5" x="237.9" y="232.5" width="2" height="1.7"/>
      <rect class="cls-5" x="240.9" y="232.5" width="2" height="1.7"/>
    </g>
    <polygon class="cls-3" points="258.7 64 258.7 15.8 15.8 15.8 15.7 64 258.7 64"/>
    <polygon class="cls-10" points="258.7 61.3 258.7 13 15.8 13 15.7 61.3 258.7 61.3"/>
    <g class="cls-1">
      <g>
        <polygon class="cls-8" points="256.7 4.4 14.7 4.4 17.7 -2 256.7 -2 256.7 4.4"/>
        <polygon class="cls-8" points="259.7 13.9 14.7 13.9 14.7 7.5 256.7 7.5 259.7 13.9"/>
        <rect class="cls-8" x="14.7" y="17" width="245" height="6.4"/>
        <rect class="cls-8" x="14.7" y="26.5" width="245" height="6.4"/>
        <rect class="cls-8" x="14.7" y="36" width="245" height="6.4"/>
        <rect class="cls-8" x="14.7" y="45.5" width="245" height="6.4"/>
        <rect class="cls-8" x="14.7" y="55" width="245" height="6.4"/>
        <g>
          <rect class="cls-9" x="14.7" y="5" width="242" height="1.7"/>
          <rect class="cls-9" x="14.7" y="14.5" width="245" height="1.7"/>
          <rect class="cls-9" x="14.7" y="24" width="245" height="1.7"/>
          <rect class="cls-9" x="14.7" y="33.5" width="245" height="1.7"/>
          <rect class="cls-9" x="14.7" y="43" width="245" height="1.7"/>
          <rect class="cls-9" x="14.7" y="52.5" width="245" height="1.7"/>
          <rect class="cls-9" x="14.7" y="62" width="245" height="1.7"/>
        </g>
        <g>
          <rect class="cls-5" x="32.1" y="-2" width="2" height="6.4"/>
          <rect class="cls-5" x="35.1" y="-2" width="2" height="6.4"/>
          <rect class="cls-5" x="31.2" y="5" width="2" height="1.7"/>
          <rect class="cls-5" x="34.1" y="5" width="2" height="1.7"/>
          <rect class="cls-5" x="32.1" y="7.5" width="2" height="6.4"/>
          <rect class="cls-5" x="35.1" y="7.5" width="2" height="6.4"/>
          <rect class="cls-5" x="31.2" y="14.5" width="2" height="1.7"/>
          <rect class="cls-5" x="34.1" y="14.5" width="2" height="1.7"/>
          <rect class="cls-5" x="61.7" y="-2" width="2" height="6.4"/>
          <rect class="cls-5" x="64.6" y="-2" width="2" height="6.4"/>
          <rect class="cls-5" x="60.7" y="5" width="2" height="1.7"/>
          <rect class="cls-5" x="63.6" y="5" width="2" height="1.7"/>
          <rect class="cls-5" x="61.7" y="7.5" width="2" height="6.4"/>
          <rect class="cls-5" x="64.6" y="7.5" width="2" height="6.4"/>
          <rect class="cls-5" x="60.7" y="14.5" width="2" height="1.7"/>
          <rect class="cls-5" x="63.6" y="14.5" width="2" height="1.7"/>
          <rect class="cls-5" x="91.2" y="-2" width="2" height="6.4"/>
          <rect class="cls-5" x="94.2" y="-2" width="2" height="6.4"/>
          <rect class="cls-5" x="90.2" y="5" width="2" height="1.7"/>
          <rect class="cls-5" x="93.2" y="5" width="2" height="1.7"/>
          <rect class="cls-5" x="91.2" y="7.5" width="2" height="6.4"/>
          <rect class="cls-5" x="94.2" y="7.5" width="2" height="6.4"/>
          <rect class="cls-5" x="90.2" y="14.5" width="2" height="1.7"/>
          <rect class="cls-5" x="93.2" y="14.5" width="2" height="1.7"/>
          <rect class="cls-5" x="120.8" y="-2" width="2" height="6.4"/>
          <rect class="cls-5" x="123.7" y="-2" width="2" height="6.4"/>
          <rect class="cls-5" x="119.8" y="5" width="2" height="1.7"/>
          <rect class="cls-5" x="122.7" y="5" width="2" height="1.7"/>
          <rect class="cls-5" x="120.8" y="7.5" width="2" height="6.4"/>
          <rect class="cls-5" x="123.7" y="7.5" width="2" height="6.4"/>
          <rect class="cls-5" x="119.8" y="14.5" width="2" height="1.7"/>
          <rect class="cls-5" x="122.7" y="14.5" width="2" height="1.7"/>
          <rect class="cls-5" x="150.3" y="-2" width="2" height="6.4"/>
          <rect class="cls-5" x="153.2" y="-2" width="2" height="6.4"/>
          <rect class="cls-5" x="149.3" y="5" width="2" height="1.7"/>
          <rect class="cls-5" x="152.3" y="5" width="2" height="1.7"/>
          <rect class="cls-5" x="150.3" y="7.5" width="2" height="6.4"/>
          <rect class="cls-5" x="153.2" y="7.5" width="2" height="6.4"/>
          <rect class="cls-5" x="149.3" y="14.5" width="2" height="1.7"/>
          <rect class="cls-5" x="152.3" y="14.5" width="2" height="1.7"/>
          <rect class="cls-5" x="179.8" y="-2" width="2" height="6.4"/>
          <rect class="cls-5" x="182.8" y="-2" width="2" height="6.4"/>
          <rect class="cls-5" x="178.8" y="5" width="2" height="1.7"/>
          <rect class="cls-5" x="181.8" y="5" width="2" height="1.7"/>
          <rect class="cls-5" x="179.8" y="7.5" width="2" height="6.4"/>
          <rect class="cls-5" x="182.8" y="7.5" width="2" height="6.4"/>
          <rect class="cls-5" x="178.8" y="14.5" width="2" height="1.7"/>
          <rect class="cls-5" x="181.8" y="14.5" width="2" height="1.7"/>
          <rect class="cls-5" x="209.4" y="-2" width="2" height="6.4"/>
          <rect class="cls-5" x="212.3" y="-2" width="2" height="6.4"/>
          <rect class="cls-5" x="208.4" y="5" width="2" height="1.7"/>
          <rect class="cls-5" x="211.3" y="5" width="2" height="1.7"/>
          <rect class="cls-5" x="209.4" y="7.5" width="2" height="6.4"/>
          <rect class="cls-5" x="212.3" y="7.5" width="2" height="6.4"/>
          <rect class="cls-5" x="208.4" y="14.5" width="2" height="1.7"/>
          <rect class="cls-5" x="211.3" y="14.5" width="2" height="1.7"/>
          <rect class="cls-5" x="238.9" y="-2" width="2" height="6.4"/>
          <rect class="cls-5" x="241.9" y="-2" width="2" height="6.4"/>
          <rect class="cls-5" x="237.9" y="5" width="2" height="1.7"/>
          <rect class="cls-5" x="240.9" y="5" width="2" height="1.7"/>
          <rect class="cls-5" x="238.9" y="7.5" width="2" height="6.4"/>
          <rect class="cls-5" x="241.9" y="7.5" width="2" height="6.4"/>
          <rect class="cls-5" x="237.9" y="14.5" width="2" height="1.7"/>
          <rect class="cls-5" x="240.9" y="14.5" width="2" height="1.7"/>
          <rect class="cls-5" x="32.1" y="17" width="2" height="6.4"/>
          <rect class="cls-5" x="35.1" y="17" width="2" height="6.4"/>
          <rect class="cls-5" x="31.2" y="24" width="2" height="1.7"/>
          <rect class="cls-5" x="34.1" y="24" width="2" height="1.7"/>
          <rect class="cls-5" x="32.1" y="26.5" width="2" height="6.4"/>
          <rect class="cls-5" x="35.1" y="26.5" width="2" height="6.4"/>
          <rect class="cls-5" x="31.2" y="33.5" width="2" height="1.7"/>
          <rect class="cls-5" x="34.1" y="33.5" width="2" height="1.7"/>
          <rect class="cls-5" x="61.7" y="17" width="2" height="6.4"/>
          <rect class="cls-5" x="64.6" y="17" width="2" height="6.4"/>
          <rect class="cls-5" x="60.7" y="24" width="2" height="1.7"/>
          <rect class="cls-5" x="63.6" y="24" width="2" height="1.7"/>
          <rect class="cls-5" x="61.7" y="26.5" width="2" height="6.4"/>
          <rect class="cls-5" x="64.6" y="26.5" width="2" height="6.4"/>
          <rect class="cls-5" x="60.7" y="33.5" width="2" height="1.7"/>
          <rect class="cls-5" x="63.6" y="33.5" width="2" height="1.7"/>
          <rect class="cls-5" x="91.2" y="17" width="2" height="6.4"/>
          <rect class="cls-5" x="94.2" y="17" width="2" height="6.4"/>
          <rect class="cls-5" x="90.2" y="24" width="2" height="1.7"/>
          <rect class="cls-5" x="93.2" y="24" width="2" height="1.7"/>
          <rect class="cls-5" x="91.2" y="26.5" width="2" height="6.4"/>
          <rect class="cls-5" x="94.2" y="26.5" width="2" height="6.4"/>
          <rect class="cls-5" x="90.2" y="33.5" width="2" height="1.7"/>
          <rect class="cls-5" x="93.2" y="33.5" width="2" height="1.7"/>
          <rect class="cls-5" x="120.8" y="17" width="2" height="6.4"/>
          <rect class="cls-5" x="123.7" y="17" width="2" height="6.4"/>
          <rect class="cls-5" x="119.8" y="24" width="2" height="1.7"/>
          <rect class="cls-5" x="122.7" y="24" width="2" height="1.7"/>
          <rect class="cls-5" x="120.8" y="26.5" width="2" height="6.4"/>
          <rect class="cls-5" x="123.7" y="26.5" width="2" height="6.4"/>
          <rect class="cls-5" x="119.8" y="33.5" width="2" height="1.7"/>
          <rect class="cls-5" x="122.7" y="33.5" width="2" height="1.7"/>
          <rect class="cls-5" x="150.3" y="17" width="2" height="6.4"/>
          <rect class="cls-5" x="153.2" y="17" width="2" height="6.4"/>
          <rect class="cls-5" x="149.3" y="24" width="2" height="1.7"/>
          <rect class="cls-5" x="152.3" y="24" width="2" height="1.7"/>
          <rect class="cls-5" x="150.3" y="26.5" width="2" height="6.4"/>
          <rect class="cls-5" x="153.2" y="26.5" width="2" height="6.4"/>
          <rect class="cls-5" x="149.3" y="33.5" width="2" height="1.7"/>
          <rect class="cls-5" x="152.3" y="33.5" width="2" height="1.7"/>
          <rect class="cls-5" x="179.8" y="17" width="2" height="6.4"/>
          <rect class="cls-5" x="182.8" y="17" width="2" height="6.4"/>
          <rect class="cls-5" x="178.8" y="24" width="2" height="1.7"/>
          <rect class="cls-5" x="181.8" y="24" width="2" height="1.7"/>
          <rect class="cls-5" x="179.8" y="26.5" width="2" height="6.4"/>
          <rect class="cls-5" x="182.8" y="26.5" width="2" height="6.4"/>
          <rect class="cls-5" x="178.8" y="33.5" width="2" height="1.7"/>
          <rect class="cls-5" x="181.8" y="33.5" width="2" height="1.7"/>
          <rect class="cls-5" x="209.4" y="17" width="2" height="6.4"/>
          <rect class="cls-5" x="212.3" y="17" width="2" height="6.4"/>
          <rect class="cls-5" x="208.4" y="24" width="2" height="1.7"/>
          <rect class="cls-5" x="211.3" y="24" width="2" height="1.7"/>
          <rect class="cls-5" x="209.4" y="26.5" width="2" height="6.4"/>
          <rect class="cls-5" x="212.3" y="26.5" width="2" height="6.4"/>
          <rect class="cls-5" x="208.4" y="33.5" width="2" height="1.7"/>
          <rect class="cls-5" x="211.3" y="33.5" width="2" height="1.7"/>
          <rect class="cls-5" x="238.9" y="17" width="2" height="6.4"/>
          <rect class="cls-5" x="241.9" y="17" width="2" height="6.4"/>
          <rect class="cls-5" x="237.9" y="24" width="2" height="1.7"/>
          <rect class="cls-5" x="240.9" y="24" width="2" height="1.7"/>
          <rect class="cls-5" x="238.9" y="26.5" width="2" height="6.4"/>
          <rect class="cls-5" x="241.9" y="26.5" width="2" height="6.4"/>
          <rect class="cls-5" x="237.9" y="33.5" width="2" height="1.7"/>
          <rect class="cls-5" x="240.9" y="33.5" width="2" height="1.7"/>
          <rect class="cls-5" x="32.1" y="36" width="2" height="6.4"/>
          <rect class="cls-5" x="35.1" y="36" width="2" height="6.4"/>
          <rect class="cls-5" x="31.2" y="43" width="2" height="1.7"/>
          <rect class="cls-5" x="34.1" y="43" width="2" height="1.7"/>
          <rect class="cls-5" x="32.1" y="45.5" width="2" height="6.4"/>
          <rect class="cls-5" x="35.1" y="45.5" width="2" height="6.4"/>
          <rect class="cls-5" x="31.2" y="52.5" width="2" height="1.7"/>
          <rect class="cls-5" x="34.1" y="52.5" width="2" height="1.7"/>
          <rect class="cls-5" x="61.7" y="36" width="2" height="6.4"/>
          <rect class="cls-5" x="64.6" y="36" width="2" height="6.4"/>
          <rect class="cls-5" x="60.7" y="43" width="2" height="1.7"/>
          <rect class="cls-5" x="63.6" y="43" width="2" height="1.7"/>
          <rect class="cls-5" x="61.7" y="45.5" width="2" height="6.4"/>
          <rect class="cls-5" x="64.6" y="45.5" width="2" height="6.4"/>
          <rect class="cls-5" x="60.7" y="52.5" width="2" height="1.7"/>
          <rect class="cls-5" x="63.6" y="52.5" width="2" height="1.7"/>
          <rect class="cls-5" x="91.2" y="36" width="2" height="6.4"/>
          <rect class="cls-5" x="94.2" y="36" width="2" height="6.4"/>
          <rect class="cls-5" x="90.2" y="43" width="2" height="1.7"/>
          <rect class="cls-5" x="93.2" y="43" width="2" height="1.7"/>
          <rect class="cls-5" x="91.2" y="45.5" width="2" height="6.4"/>
          <rect class="cls-5" x="94.2" y="45.5" width="2" height="6.4"/>
          <rect class="cls-5" x="90.2" y="52.5" width="2" height="1.7"/>
          <rect class="cls-5" x="93.2" y="52.5" width="2" height="1.7"/>
          <rect class="cls-5" x="120.8" y="36" width="2" height="6.4"/>
          <rect class="cls-5" x="123.7" y="36" width="2" height="6.4"/>
          <rect class="cls-5" x="119.8" y="43" width="2" height="1.7"/>
          <rect class="cls-5" x="122.7" y="43" width="2" height="1.7"/>
          <rect class="cls-5" x="120.8" y="45.5" width="2" height="6.4"/>
          <rect class="cls-5" x="123.7" y="45.5" width="2" height="6.4"/>
          <rect class="cls-5" x="119.8" y="52.5" width="2" height="1.7"/>
          <rect class="cls-5" x="122.7" y="52.5" width="2" height="1.7"/>
          <rect class="cls-5" x="150.3" y="36" width="2" height="6.4"/>
          <rect class="cls-5" x="153.2" y="36" width="2" height="6.4"/>
          <rect class="cls-5" x="149.3" y="43" width="2" height="1.7"/>
          <rect class="cls-5" x="152.3" y="43" width="2" height="1.7"/>
          <rect class="cls-5" x="150.3" y="45.5" width="2" height="6.4"/>
          <rect class="cls-5" x="153.2" y="45.5" width="2" height="6.4"/>
          <rect class="cls-5" x="149.3" y="52.5" width="2" height="1.7"/>
          <rect class="cls-5" x="152.3" y="52.5" width="2" height="1.7"/>
          <rect class="cls-5" x="179.8" y="36" width="2" height="6.4"/>
          <rect class="cls-5" x="182.8" y="36" width="2" height="6.4"/>
          <rect class="cls-5" x="178.8" y="43" width="2" height="1.7"/>
          <rect class="cls-5" x="181.8" y="43" width="2" height="1.7"/>
          <rect class="cls-5" x="179.8" y="45.5" width="2" height="6.4"/>
          <rect class="cls-5" x="182.8" y="45.5" width="2" height="6.4"/>
          <rect class="cls-5" x="178.8" y="52.5" width="2" height="1.7"/>
          <rect class="cls-5" x="181.8" y="52.5" width="2" height="1.7"/>
          <rect class="cls-5" x="209.4" y="36" width="2" height="6.4"/>
          <rect class="cls-5" x="212.3" y="36" width="2" height="6.4"/>
          <rect class="cls-5" x="208.4" y="43" width="2" height="1.7"/>
          <rect class="cls-5" x="211.3" y="43" width="2" height="1.7"/>
          <rect class="cls-5" x="209.4" y="45.5" width="2" height="6.4"/>
          <rect class="cls-5" x="212.3" y="45.5" width="2" height="6.4"/>
          <rect class="cls-5" x="208.4" y="52.5" width="2" height="1.7"/>
          <rect class="cls-5" x="211.3" y="52.5" width="2" height="1.7"/>
          <rect class="cls-5" x="238.9" y="36" width="2" height="6.4"/>
          <rect class="cls-5" x="241.9" y="36" width="2" height="6.4"/>
          <rect class="cls-5" x="237.9" y="43" width="2" height="1.7"/>
          <rect class="cls-5" x="240.9" y="43" width="2" height="1.7"/>
          <rect class="cls-5" x="238.9" y="45.5" width="2" height="6.4"/>
          <rect class="cls-5" x="241.9" y="45.5" width="2" height="6.4"/>
          <rect class="cls-5" x="237.9" y="52.5" width="2" height="1.7"/>
          <rect class="cls-5" x="240.9" y="52.5" width="2" height="1.7"/>
          <rect class="cls-5" x="32.1" y="55" width="2" height="6.4"/>
          <rect class="cls-5" x="35.1" y="55" width="2" height="6.4"/>
          <rect class="cls-5" x="31.2" y="62" width="2" height="1.7"/>
          <rect class="cls-5" x="34.1" y="62" width="2" height="1.7"/>
          <rect class="cls-5" x="61.7" y="55" width="2" height="6.4"/>
          <rect class="cls-5" x="64.6" y="55" width="2" height="6.4"/>
          <rect class="cls-5" x="60.7" y="62" width="2" height="1.7"/>
          <rect class="cls-5" x="63.6" y="62" width="2" height="1.7"/>
          <rect class="cls-5" x="91.2" y="55" width="2" height="6.4"/>
          <rect class="cls-5" x="94.2" y="55" width="2" height="6.4"/>
          <rect class="cls-5" x="90.2" y="62" width="2" height="1.7"/>
          <rect class="cls-5" x="93.2" y="62" width="2" height="1.7"/>
          <rect class="cls-5" x="120.8" y="55" width="2" height="6.4"/>
          <rect class="cls-5" x="123.7" y="55" width="2" height="6.4"/>
          <rect class="cls-5" x="119.8" y="62" width="2" height="1.7"/>
          <rect class="cls-5" x="122.7" y="62" width="2" height="1.7"/>
          <rect class="cls-5" x="150.3" y="55" width="2" height="6.4"/>
          <rect class="cls-5" x="153.2" y="55" width="2" height="6.4"/>
          <rect class="cls-5" x="149.3" y="62" width="2" height="1.7"/>
          <rect class="cls-5" x="152.3" y="62" width="2" height="1.7"/>
          <rect class="cls-5" x="179.8" y="55" width="2" height="6.4"/>
          <rect class="cls-5" x="182.8" y="55" width="2" height="6.4"/>
          <rect class="cls-5" x="178.8" y="62" width="2" height="1.7"/>
          <rect class="cls-5" x="181.8" y="62" width="2" height="1.7"/>
          <rect class="cls-5" x="209.4" y="55" width="2" height="6.4"/>
          <rect class="cls-5" x="212.3" y="55" width="2" height="6.4"/>
          <rect class="cls-5" x="208.4" y="62" width="2" height="1.7"/>
          <rect class="cls-5" x="211.3" y="62" width="2" height="1.7"/>
          <rect class="cls-5" x="238.9" y="55" width="2" height="6.4"/>
          <rect class="cls-5" x="241.9" y="55" width="2" height="6.4"/>
          <rect class="cls-5" x="237.9" y="62" width="2" height="1.7"/>
          <rect class="cls-5" x="240.9" y="62" width="2" height="1.7"/>
        </g>
      </g>
    </g>
  </g>
</svg>